<svg width="48" height="48" viewBox="0 0 48 48" fill="none" xmlns="http://www.w3.org/2000/svg">
<path d="M0 24C0 10.7452 10.7452 0 24 0C37.2548 0 48 10.7452 48 24C48 37.2548 37.2548 48 24 48C10.7452 48 0 37.2548 0 24Z" fill="#333333"/>
<path d="M19.2 38.3998C21.851 38.3998 24 36.2508 24 33.5998V28.7998H19.2C16.549 28.7998 14.4 30.9489 14.4 33.5998C14.4 36.2508 16.549 38.3998 19.2 38.3998Z" fill="#0ACF83"/>
<path d="M14.4 24.0002C14.4 21.3492 16.549 19.2002 19.2 19.2002H24V28.8002H19.2C16.549 28.8002 14.4 26.6511 14.4 24.0002Z" fill="#A259FF"/>
<path d="M14.4 14.4001C14.4 11.7491 16.549 9.6001 19.2 9.6001H24V19.2001H19.2C16.549 19.2001 14.4 17.051 14.4 14.4001Z" fill="#F24E1E"/>
<path d="M24 9.6001H28.8C31.451 9.6001 33.6 11.7491 33.6 14.4001C33.6 17.051 31.451 19.2001 28.8 19.2001H24V9.6001Z" fill="#FF7262"/>
<path d="M33.6 24.0002C33.6 26.6511 31.451 28.8002 28.8 28.8002C26.149 28.8002 24 26.6511 24 24.0002C24 21.3492 26.149 19.2002 28.8 19.2002C31.451 19.2002 33.6 21.3492 33.6 24.0002Z" fill="#1ABCFE"/>
</svg>
