<svg width="243" height="118" viewBox="0 0 243 118" fill="none" xmlns="http://www.w3.org/2000/svg">
<path d="M12.571 29.1705C13.6257 29.1705 14.4886 28.3075 14.4886 27.2528C14.4886 26.1982 13.6257 25.3352 12.571 25.3352C11.5163 25.3352 10.6534 26.1982 10.6534 27.2528C10.6534 28.3075 11.5163 29.1705 12.571 29.1705ZM29.2702 29.1705C30.3249 29.1705 31.1879 28.3075 31.1879 27.2528C31.1879 26.1982 30.3249 25.3352 29.2702 25.3352C28.2156 25.3352 27.3526 26.1982 27.3526 27.2528C27.3526 28.3075 28.2156 29.1705 29.2702 29.1705ZM45.9695 29.1705C47.0241 29.1705 47.8871 28.3075 47.8871 27.2528C47.8871 26.1982 47.0241 25.3352 45.9695 25.3352C44.9148 25.3352 44.0518 26.1982 44.0518 27.2528C44.0518 28.3075 44.9148 29.1705 45.9695 29.1705ZM62.6687 29.1705C63.7234 29.1705 64.5863 28.3075 64.5863 27.2528C64.5863 26.1982 63.7234 25.3352 62.6687 25.3352C61.614 25.3352 60.7511 26.1982 60.7511 27.2528C60.7511 28.3075 61.614 29.1705 62.6687 29.1705ZM96.0671 29.1705C97.1218 29.1705 97.9847 28.3075 97.9847 27.2528C97.9847 26.1982 97.1218 25.3352 96.0671 25.3352C95.0124 25.3352 94.1495 26.1982 94.1495 27.2528C94.1495 28.3075 95.0124 29.1705 96.0671 29.1705ZM112.766 29.1705C113.821 29.1705 114.684 28.3075 114.684 27.2528C114.684 26.1982 113.821 25.3352 112.766 25.3352C111.712 25.3352 110.849 26.1982 110.849 27.2528C110.849 28.3075 111.712 29.1705 112.766 29.1705ZM129.466 29.1705C130.52 29.1705 131.383 28.3075 131.383 27.2528C131.383 26.1982 130.52 25.3352 129.466 25.3352C128.411 25.3352 127.548 26.1982 127.548 27.2528C127.548 28.3075 128.411 29.1705 129.466 29.1705ZM146.165 29.1705C147.219 29.1705 148.082 28.3075 148.082 27.2528C148.082 26.1982 147.219 25.3352 146.165 25.3352C145.11 25.3352 144.247 26.1982 144.247 27.2528C144.247 28.3075 145.11 29.1705 146.165 29.1705ZM179.563 29.1705C180.618 29.1705 181.481 28.3075 181.481 27.2528C181.481 26.1982 180.618 25.3352 179.563 25.3352C178.509 25.3352 177.646 26.1982 177.646 27.2528C177.646 28.3075 178.509 29.1705 179.563 29.1705ZM196.262 29.1705C197.317 29.1705 198.18 28.3075 198.18 27.2528C198.18 26.1982 197.317 25.3352 196.262 25.3352C195.208 25.3352 194.345 26.1982 194.345 27.2528C194.345 28.3075 195.208 29.1705 196.262 29.1705ZM212.962 29.1705C214.016 29.1705 214.879 28.3075 214.879 27.2528C214.879 26.1982 214.016 25.3352 212.962 25.3352C211.907 25.3352 211.044 26.1982 211.044 27.2528C211.044 28.3075 211.907 29.1705 212.962 29.1705ZM12.571 65.1705C13.6257 65.1705 14.4886 64.3075 14.4886 63.2528C14.4886 62.1982 13.6257 61.3352 12.571 61.3352C11.5163 61.3352 10.6534 62.1982 10.6534 63.2528C10.6534 64.3075 11.5163 65.1705 12.571 65.1705ZM29.2702 65.1705C30.3249 65.1705 31.1879 64.3075 31.1879 63.2528C31.1879 62.1982 30.3249 61.3352 29.2702 61.3352C28.2156 61.3352 27.3526 62.1982 27.3526 63.2528C27.3526 64.3075 28.2156 65.1705 29.2702 65.1705ZM62.6687 65.1705C63.7234 65.1705 64.5863 64.3075 64.5863 63.2528C64.5863 62.1982 63.7234 61.3352 62.6687 61.3352C61.614 61.3352 60.7511 62.1982 60.7511 63.2528C60.7511 64.3075 61.614 65.1705 62.6687 65.1705ZM79.3679 65.1705C80.4226 65.1705 81.2855 64.3075 81.2855 63.2528C81.2855 62.1982 80.4226 61.3352 79.3679 61.3352C78.3132 61.3352 77.4503 62.1982 77.4503 63.2528C77.4503 64.3075 78.3132 65.1705 79.3679 65.1705ZM96.0671 65.1705C97.1218 65.1705 97.9847 64.3075 97.9847 63.2528C97.9847 62.1982 97.1218 61.3352 96.0671 61.3352C95.0124 61.3352 94.1495 62.1982 94.1495 63.2528C94.1495 64.3075 95.0124 65.1705 96.0671 65.1705ZM129.466 65.1705C130.52 65.1705 131.383 64.3075 131.383 63.2528C131.383 62.1982 130.52 61.3352 129.466 61.3352C128.411 61.3352 127.548 62.1982 127.548 63.2528C127.548 64.3075 128.411 65.1705 129.466 65.1705ZM146.165 65.1705C147.219 65.1705 148.082 64.3075 148.082 63.2528C148.082 62.1982 147.219 61.3352 146.165 61.3352C145.11 61.3352 144.247 62.1982 144.247 63.2528C144.247 64.3075 145.11 65.1705 146.165 65.1705ZM162.864 65.1705C163.919 65.1705 164.782 64.3075 164.782 63.2528C164.782 62.1982 163.919 61.3352 162.864 61.3352C161.809 61.3352 160.946 62.1982 160.946 63.2528C160.946 64.3075 161.809 65.1705 162.864 65.1705ZM196.262 65.1705C197.317 65.1705 198.18 64.3075 198.18 63.2528C198.18 62.1982 197.317 61.3352 196.262 61.3352C195.208 61.3352 194.345 62.1982 194.345 63.2528C194.345 64.3075 195.208 65.1705 196.262 65.1705ZM212.962 65.1705C214.016 65.1705 214.879 64.3075 214.879 63.2528C214.879 62.1982 214.016 61.3352 212.962 61.3352C211.907 61.3352 211.044 62.1982 211.044 63.2528C211.044 64.3075 211.907 65.1705 212.962 65.1705ZM229.661 65.1705C230.716 65.1705 231.578 64.3075 231.578 63.2528C231.578 62.1982 230.716 61.3352 229.661 61.3352C228.606 61.3352 227.743 62.1982 227.743 63.2528C227.743 64.3075 228.606 65.1705 229.661 65.1705ZM12.571 101.17C13.6257 101.17 14.4886 100.308 14.4886 99.2528C14.4886 98.1982 13.6257 97.3352 12.571 97.3352C11.5163 97.3352 10.6534 98.1982 10.6534 99.2528C10.6534 100.308 11.5163 101.17 12.571 101.17ZM29.2702 101.17C30.3249 101.17 31.1879 100.308 31.1879 99.2528C31.1879 98.1982 30.3249 97.3352 29.2702 97.3352C28.2156 97.3352 27.3526 98.1982 27.3526 99.2528C27.3526 100.308 28.2156 101.17 29.2702 101.17ZM45.9695 101.17C47.0241 101.17 47.8871 100.308 47.8871 99.2528C47.8871 98.1982 47.0241 97.3352 45.9695 97.3352C44.9148 97.3352 44.0518 98.1982 44.0518 99.2528C44.0518 100.308 44.9148 101.17 45.9695 101.17ZM79.3679 101.17C80.4226 101.17 81.2855 100.308 81.2855 99.2528C81.2855 98.1982 80.4226 97.3352 79.3679 97.3352C78.3132 97.3352 77.4503 98.1982 77.4503 99.2528C77.4503 100.308 78.3132 101.17 79.3679 101.17ZM96.0671 101.17C97.1218 101.17 97.9847 100.308 97.9847 99.2528C97.9847 98.1982 97.1218 97.3352 96.0671 97.3352C95.0124 97.3352 94.1495 98.1982 94.1495 99.2528C94.1495 100.308 95.0124 101.17 96.0671 101.17ZM112.766 101.17C113.821 101.17 114.684 100.308 114.684 99.2528C114.684 98.1982 113.821 97.3352 112.766 97.3352C111.712 97.3352 110.849 98.1982 110.849 99.2528C110.849 100.308 111.712 101.17 112.766 101.17ZM129.466 101.17C130.52 101.17 131.383 100.308 131.383 99.2528C131.383 98.1982 130.52 97.3352 129.466 97.3352C128.411 97.3352 127.548 98.1982 127.548 99.2528C127.548 100.308 128.411 101.17 129.466 101.17ZM162.864 101.17C163.919 101.17 164.782 100.308 164.782 99.2528C164.782 98.1982 163.919 97.3352 162.864 97.3352C161.809 97.3352 160.946 98.1982 160.946 99.2528C160.946 100.308 161.809 101.17 162.864 101.17ZM179.563 101.17C180.618 101.17 181.481 100.308 181.481 99.2528C181.481 98.1982 180.618 97.3352 179.563 97.3352C178.509 97.3352 177.646 98.1982 177.646 99.2528C177.646 100.308 178.509 101.17 179.563 101.17ZM196.262 101.17C197.317 101.17 198.18 100.308 198.18 99.2528C198.18 98.1982 197.317 97.3352 196.262 97.3352C195.208 97.3352 194.345 98.1982 194.345 99.2528C194.345 100.308 195.208 101.17 196.262 101.17ZM212.962 101.17C214.016 101.17 214.879 100.308 214.879 99.2528C214.879 98.1982 214.016 97.3352 212.962 97.3352C211.907 97.3352 211.044 98.1982 211.044 99.2528C211.044 100.308 211.907 101.17 212.962 101.17Z" fill="#9D9D9D"/>
<path d="M79.3679 29.1705C80.4226 29.1705 81.2855 28.3075 81.2855 27.2528C81.2855 26.1982 80.4226 25.3352 79.3679 25.3352C78.3132 25.3352 77.4503 26.1982 77.4503 27.2528C77.4503 28.3075 78.3132 29.1705 79.3679 29.1705ZM162.864 29.1705C163.919 29.1705 164.782 28.3075 164.782 27.2528C164.782 26.1982 163.919 25.3352 162.864 25.3352C161.809 25.3352 160.946 26.1982 160.946 27.2528C160.946 28.3075 161.809 29.1705 162.864 29.1705ZM229.661 29.1705C230.716 29.1705 231.578 28.3075 231.578 27.2528C231.578 26.1982 230.716 25.3352 229.661 25.3352C228.606 25.3352 227.743 26.1982 227.743 27.2528C227.743 28.3075 228.606 29.1705 229.661 29.1705ZM45.9695 65.1705C47.0241 65.1705 47.8871 64.3075 47.8871 63.2528C47.8871 62.1982 47.0241 61.3352 45.9695 61.3352C44.9148 61.3352 44.0518 62.1982 44.0518 63.2528C44.0518 64.3075 44.9148 65.1705 45.9695 65.1705ZM112.766 65.1705C113.821 65.1705 114.684 64.3075 114.684 63.2528C114.684 62.1982 113.821 61.3352 112.766 61.3352C111.712 61.3352 110.849 62.1982 110.849 63.2528C110.849 64.3075 111.712 65.1705 112.766 65.1705ZM179.563 65.1705C180.618 65.1705 181.481 64.3075 181.481 63.2528C181.481 62.1982 180.618 61.3352 179.563 61.3352C178.509 61.3352 177.646 62.1982 177.646 63.2528C177.646 64.3075 178.509 65.1705 179.563 65.1705ZM62.6687 101.17C63.7234 101.17 64.5863 100.308 64.5863 99.2528C64.5863 98.1982 63.7234 97.3352 62.6687 97.3352C61.614 97.3352 60.7511 98.1982 60.7511 99.2528C60.7511 100.308 61.614 101.17 62.6687 101.17ZM146.165 101.17C147.219 101.17 148.082 100.308 148.082 99.2528C148.082 98.1982 147.219 97.3352 146.165 97.3352C145.11 97.3352 144.247 98.1982 144.247 99.2528C144.247 100.308 145.11 101.17 146.165 101.17ZM229.661 101.17C230.716 101.17 231.578 100.308 231.578 99.2528C231.578 98.1982 230.716 97.3352 229.661 97.3352C228.606 97.3352 227.743 98.1982 227.743 99.2528C227.743 100.308 228.606 101.17 229.661 101.17Z" fill="#FFC700"/>
</svg>
