<svg width="718" height="266" viewBox="0 0 718 266" fill="none" xmlns="http://www.w3.org/2000/svg">
<path d="M4.13352 29.1705C5.18821 29.1705 6.05114 28.3075 6.05114 27.2528C6.05114 26.1982 5.18821 25.3352 4.13352 25.3352C3.07884 25.3352 2.21591 26.1982 2.21591 27.2528C2.21591 28.3075 3.07884 29.1705 4.13352 29.1705ZM46.1452 29.1705C47.1999 29.1705 48.0629 28.3075 48.0629 27.2528C48.0629 26.1982 47.1999 25.3352 46.1452 25.3352C45.0906 25.3352 44.2276 26.1982 44.2276 27.2528C44.2276 28.3075 45.0906 29.1705 46.1452 29.1705ZM130.169 29.1705C131.223 29.1705 132.086 28.3075 132.086 27.2528C132.086 26.1982 131.223 25.3352 130.169 25.3352C129.114 25.3352 128.251 26.1982 128.251 27.2528C128.251 28.3075 129.114 29.1705 130.169 29.1705ZM172.18 29.1705C173.235 29.1705 174.098 28.3075 174.098 27.2528C174.098 26.1982 173.235 25.3352 172.18 25.3352C171.126 25.3352 170.263 26.1982 170.263 27.2528C170.263 28.3075 171.126 29.1705 172.18 29.1705ZM256.204 29.1705C257.259 29.1705 258.121 28.3075 258.121 27.2528C258.121 26.1982 257.259 25.3352 256.204 25.3352C255.149 25.3352 254.286 26.1982 254.286 27.2528C254.286 28.3075 255.149 29.1705 256.204 29.1705ZM298.216 29.1705C299.27 29.1705 300.133 28.3075 300.133 27.2528C300.133 26.1982 299.27 25.3352 298.216 25.3352C297.161 25.3352 296.298 26.1982 296.298 27.2528C296.298 28.3075 297.161 29.1705 298.216 29.1705ZM340.227 29.1705C341.282 29.1705 342.145 28.3075 342.145 27.2528C342.145 26.1982 341.282 25.3352 340.227 25.3352C339.173 25.3352 338.31 26.1982 338.31 27.2528C338.31 28.3075 339.173 29.1705 340.227 29.1705ZM382.239 29.1705C383.294 29.1705 384.157 28.3075 384.157 27.2528C384.157 26.1982 383.294 25.3352 382.239 25.3352C381.184 25.3352 380.321 26.1982 380.321 27.2528C380.321 28.3075 381.184 29.1705 382.239 29.1705ZM424.251 29.1705C425.305 29.1705 426.168 28.3075 426.168 27.2528C426.168 26.1982 425.305 25.3352 424.251 25.3352C423.196 25.3352 422.333 26.1982 422.333 27.2528C422.333 28.3075 423.196 29.1705 424.251 29.1705ZM466.262 29.1705C467.317 29.1705 468.18 28.3075 468.18 27.2528C468.18 26.1982 467.317 25.3352 466.262 25.3352C465.208 25.3352 464.345 26.1982 464.345 27.2528C464.345 28.3075 465.208 29.1705 466.262 29.1705ZM508.274 29.1705C509.329 29.1705 510.192 28.3075 510.192 27.2528C510.192 26.1982 509.329 25.3352 508.274 25.3352C507.219 25.3352 506.357 26.1982 506.357 27.2528C506.357 28.3075 507.219 29.1705 508.274 29.1705ZM4.13352 65.1705C5.18821 65.1705 6.05114 64.3075 6.05114 63.2528C6.05114 62.1982 5.18821 61.3352 4.13352 61.3352C3.07884 61.3352 2.21591 62.1982 2.21591 63.2528C2.21591 64.3075 3.07884 65.1705 4.13352 65.1705ZM46.1452 65.1705C47.1999 65.1705 48.0629 64.3075 48.0629 63.2528C48.0629 62.1982 47.1999 61.3352 46.1452 61.3352C45.0906 61.3352 44.2276 62.1982 44.2276 63.2528C44.2276 64.3075 45.0906 65.1705 46.1452 65.1705ZM88.157 65.1705C89.2116 65.1705 90.0746 64.3075 90.0746 63.2528C90.0746 62.1982 89.2116 61.3352 88.157 61.3352C87.1023 61.3352 86.2393 62.1982 86.2393 63.2528C86.2393 64.3075 87.1023 65.1705 88.157 65.1705ZM172.18 65.1705C173.235 65.1705 174.098 64.3075 174.098 63.2528C174.098 62.1982 173.235 61.3352 172.18 61.3352C171.126 61.3352 170.263 62.1982 170.263 63.2528C170.263 64.3075 171.126 65.1705 172.18 65.1705ZM214.192 65.1705C215.247 65.1705 216.11 64.3075 216.11 63.2528C216.11 62.1982 215.247 61.3352 214.192 61.3352C213.137 61.3352 212.275 62.1982 212.275 63.2528C212.275 64.3075 213.137 65.1705 214.192 65.1705ZM256.204 65.1705C257.259 65.1705 258.121 64.3075 258.121 63.2528C258.121 62.1982 257.259 61.3352 256.204 61.3352C255.149 61.3352 254.286 62.1982 254.286 63.2528C254.286 64.3075 255.149 65.1705 256.204 65.1705ZM340.227 65.1705C341.282 65.1705 342.145 64.3075 342.145 63.2528C342.145 62.1982 341.282 61.3352 340.227 61.3352C339.173 61.3352 338.31 62.1982 338.31 63.2528C338.31 64.3075 339.173 65.1705 340.227 65.1705ZM424.251 65.1705C425.305 65.1705 426.168 64.3075 426.168 63.2528C426.168 62.1982 425.305 61.3352 424.251 61.3352C423.196 61.3352 422.333 62.1982 422.333 63.2528C422.333 64.3075 423.196 65.1705 424.251 65.1705ZM466.262 65.1705C467.317 65.1705 468.18 64.3075 468.18 63.2528C468.18 62.1982 467.317 61.3352 466.262 61.3352C465.208 61.3352 464.345 62.1982 464.345 63.2528C464.345 64.3075 465.208 65.1705 466.262 65.1705ZM508.274 65.1705C509.329 65.1705 510.192 64.3075 510.192 63.2528C510.192 62.1982 509.329 61.3352 508.274 61.3352C507.219 61.3352 506.357 62.1982 506.357 63.2528C506.357 64.3075 507.219 65.1705 508.274 65.1705ZM550.286 65.1705C551.341 65.1705 552.203 64.3075 552.203 63.2528C552.203 62.1982 551.341 61.3352 550.286 61.3352C549.231 61.3352 548.368 62.1982 548.368 63.2528C548.368 64.3075 549.231 65.1705 550.286 65.1705ZM4.13352 101.17C5.18821 101.17 6.05114 100.308 6.05114 99.2528C6.05114 98.1982 5.18821 97.3352 4.13352 97.3352C3.07884 97.3352 2.21591 98.1982 2.21591 99.2528C2.21591 100.308 3.07884 101.17 4.13352 101.17ZM88.157 101.17C89.2116 101.17 90.0746 100.308 90.0746 99.2528C90.0746 98.1982 89.2116 97.3352 88.157 97.3352C87.1023 97.3352 86.2393 98.1982 86.2393 99.2528C86.2393 100.308 87.1023 101.17 88.157 101.17ZM130.169 101.17C131.223 101.17 132.086 100.308 132.086 99.2528C132.086 98.1982 131.223 97.3352 130.169 97.3352C129.114 97.3352 128.251 98.1982 128.251 99.2528C128.251 100.308 129.114 101.17 130.169 101.17ZM172.18 101.17C173.235 101.17 174.098 100.308 174.098 99.2528C174.098 98.1982 173.235 97.3352 172.18 97.3352C171.126 97.3352 170.263 98.1982 170.263 99.2528C170.263 100.308 171.126 101.17 172.18 101.17ZM214.192 101.17C215.247 101.17 216.11 100.308 216.11 99.2528C216.11 98.1982 215.247 97.3352 214.192 97.3352C213.137 97.3352 212.275 98.1982 212.275 99.2528C212.275 100.308 213.137 101.17 214.192 101.17ZM256.204 101.17C257.259 101.17 258.121 100.308 258.121 99.2528C258.121 98.1982 257.259 97.3352 256.204 97.3352C255.149 97.3352 254.286 98.1982 254.286 99.2528C254.286 100.308 255.149 101.17 256.204 101.17ZM298.216 101.17C299.27 101.17 300.133 100.308 300.133 99.2528C300.133 98.1982 299.27 97.3352 298.216 97.3352C297.161 97.3352 296.298 98.1982 296.298 99.2528C296.298 100.308 297.161 101.17 298.216 101.17ZM340.227 101.17C341.282 101.17 342.145 100.308 342.145 99.2528C342.145 98.1982 341.282 97.3352 340.227 97.3352C339.173 97.3352 338.31 98.1982 338.31 99.2528C338.31 100.308 339.173 101.17 340.227 101.17ZM382.239 101.17C383.294 101.17 384.157 100.308 384.157 99.2528C384.157 98.1982 383.294 97.3352 382.239 97.3352C381.184 97.3352 380.321 98.1982 380.321 99.2528C380.321 100.308 381.184 101.17 382.239 101.17ZM466.262 101.17C467.317 101.17 468.18 100.308 468.18 99.2528C468.18 98.1982 467.317 97.3352 466.262 97.3352C465.208 97.3352 464.345 98.1982 464.345 99.2528C464.345 100.308 465.208 101.17 466.262 101.17ZM508.274 101.17C509.329 101.17 510.192 100.308 510.192 99.2528C510.192 98.1982 509.329 97.3352 508.274 97.3352C507.219 97.3352 506.357 98.1982 506.357 99.2528C506.357 100.308 507.219 101.17 508.274 101.17ZM550.286 101.17C551.341 101.17 552.203 100.308 552.203 99.2528C552.203 98.1982 551.341 97.3352 550.286 97.3352C549.231 97.3352 548.368 98.1982 548.368 99.2528C548.368 100.308 549.231 101.17 550.286 101.17ZM4.13352 137.17C5.18821 137.17 6.05114 136.308 6.05114 135.253C6.05114 134.198 5.18821 133.335 4.13352 133.335C3.07884 133.335 2.21591 134.198 2.21591 135.253C2.21591 136.308 3.07884 137.17 4.13352 137.17ZM46.1452 137.17C47.1999 137.17 48.0629 136.308 48.0629 135.253C48.0629 134.198 47.1999 133.335 46.1452 133.335C45.0906 133.335 44.2276 134.198 44.2276 135.253C44.2276 136.308 45.0906 137.17 46.1452 137.17ZM88.157 137.17C89.2116 137.17 90.0746 136.308 90.0746 135.253C90.0746 134.198 89.2116 133.335 88.157 133.335C87.1023 133.335 86.2393 134.198 86.2393 135.253C86.2393 136.308 87.1023 137.17 88.157 137.17ZM130.169 137.17C131.223 137.17 132.086 136.308 132.086 135.253C132.086 134.198 131.223 133.335 130.169 133.335C129.114 133.335 128.251 134.198 128.251 135.253C128.251 136.308 129.114 137.17 130.169 137.17ZM214.192 137.17C215.247 137.17 216.11 136.308 216.11 135.253C216.11 134.198 215.247 133.335 214.192 133.335C213.137 133.335 212.275 134.198 212.275 135.253C212.275 136.308 213.137 137.17 214.192 137.17ZM256.204 137.17C257.259 137.17 258.121 136.308 258.121 135.253C258.121 134.198 257.259 133.335 256.204 133.335C255.149 133.335 254.286 134.198 254.286 135.253C254.286 136.308 255.149 137.17 256.204 137.17ZM340.227 137.17C341.282 137.17 342.145 136.308 342.145 135.253C342.145 134.198 341.282 133.335 340.227 133.335C339.173 133.335 338.31 134.198 338.31 135.253C338.31 136.308 339.173 137.17 340.227 137.17ZM382.239 137.17C383.294 137.17 384.157 136.308 384.157 135.253C384.157 134.198 383.294 133.335 382.239 133.335C381.184 133.335 380.321 134.198 380.321 135.253C380.321 136.308 381.184 137.17 382.239 137.17ZM424.251 137.17C425.305 137.17 426.168 136.308 426.168 135.253C426.168 134.198 425.305 133.335 424.251 133.335C423.196 133.335 422.333 134.198 422.333 135.253C422.333 136.308 423.196 137.17 424.251 137.17ZM466.262 137.17C467.317 137.17 468.18 136.308 468.18 135.253C468.18 134.198 467.317 133.335 466.262 133.335C465.208 133.335 464.345 134.198 464.345 135.253C464.345 136.308 465.208 137.17 466.262 137.17ZM508.274 137.17C509.329 137.17 510.192 136.308 510.192 135.253C510.192 134.198 509.329 133.335 508.274 133.335C507.219 133.335 506.357 134.198 506.357 135.253C506.357 136.308 507.219 137.17 508.274 137.17ZM4.13352 173.17C5.18821 173.17 6.05114 172.308 6.05114 171.253C6.05114 170.198 5.18821 169.335 4.13352 169.335C3.07884 169.335 2.21591 170.198 2.21591 171.253C2.21591 172.308 3.07884 173.17 4.13352 173.17ZM88.157 173.17C89.2116 173.17 90.0746 172.308 90.0746 171.253C90.0746 170.198 89.2116 169.335 88.157 169.335C87.1023 169.335 86.2393 170.198 86.2393 171.253C86.2393 172.308 87.1023 173.17 88.157 173.17ZM130.169 173.17C131.223 173.17 132.086 172.308 132.086 171.253C132.086 170.198 131.223 169.335 130.169 169.335C129.114 169.335 128.251 170.198 128.251 171.253C128.251 172.308 129.114 173.17 130.169 173.17ZM172.18 173.17C173.235 173.17 174.098 172.308 174.098 171.253C174.098 170.198 173.235 169.335 172.18 169.335C171.126 169.335 170.263 170.198 170.263 171.253C170.263 172.308 171.126 173.17 172.18 173.17ZM256.204 173.17C257.259 173.17 258.121 172.308 258.121 171.253C258.121 170.198 257.259 169.335 256.204 169.335C255.149 169.335 254.286 170.198 254.286 171.253C254.286 172.308 255.149 173.17 256.204 173.17ZM298.216 173.17C299.27 173.17 300.133 172.308 300.133 171.253C300.133 170.198 299.27 169.335 298.216 169.335C297.161 169.335 296.298 170.198 296.298 171.253C296.298 172.308 297.161 173.17 298.216 173.17ZM340.227 173.17C341.282 173.17 342.145 172.308 342.145 171.253C342.145 170.198 341.282 169.335 340.227 169.335C339.173 169.335 338.31 170.198 338.31 171.253C338.31 172.308 339.173 173.17 340.227 173.17ZM424.251 173.17C425.305 173.17 426.168 172.308 426.168 171.253C426.168 170.198 425.305 169.335 424.251 169.335C423.196 169.335 422.333 170.198 422.333 171.253C422.333 172.308 423.196 173.17 424.251 173.17ZM508.274 173.17C509.329 173.17 510.192 172.308 510.192 171.253C510.192 170.198 509.329 169.335 508.274 169.335C507.219 169.335 506.357 170.198 506.357 171.253C506.357 172.308 507.219 173.17 508.274 173.17ZM550.286 173.17C551.341 173.17 552.203 172.308 552.203 171.253C552.203 170.198 551.341 169.335 550.286 169.335C549.231 169.335 548.368 170.198 548.368 171.253C548.368 172.308 549.231 173.17 550.286 173.17ZM4.13352 209.17C5.18821 209.17 6.05114 208.308 6.05114 207.253C6.05114 206.198 5.18821 205.335 4.13352 205.335C3.07884 205.335 2.21591 206.198 2.21591 207.253C2.21591 208.308 3.07884 209.17 4.13352 209.17ZM46.1452 209.17C47.1999 209.17 48.0629 208.308 48.0629 207.253C48.0629 206.198 47.1999 205.335 46.1452 205.335C45.0906 205.335 44.2276 206.198 44.2276 207.253C44.2276 208.308 45.0906 209.17 46.1452 209.17ZM88.157 209.17C89.2116 209.17 90.0746 208.308 90.0746 207.253C90.0746 206.198 89.2116 205.335 88.157 205.335C87.1023 205.335 86.2393 206.198 86.2393 207.253C86.2393 208.308 87.1023 209.17 88.157 209.17ZM130.169 209.17C131.223 209.17 132.086 208.308 132.086 207.253C132.086 206.198 131.223 205.335 130.169 205.335C129.114 205.335 128.251 206.198 128.251 207.253C128.251 208.308 129.114 209.17 130.169 209.17ZM172.18 209.17C173.235 209.17 174.098 208.308 174.098 207.253C174.098 206.198 173.235 205.335 172.18 205.335C171.126 205.335 170.263 206.198 170.263 207.253C170.263 208.308 171.126 209.17 172.18 209.17ZM214.192 209.17C215.247 209.17 216.11 208.308 216.11 207.253C216.11 206.198 215.247 205.335 214.192 205.335C213.137 205.335 212.275 206.198 212.275 207.253C212.275 208.308 213.137 209.17 214.192 209.17ZM256.204 209.17C257.259 209.17 258.121 208.308 258.121 207.253C258.121 206.198 257.259 205.335 256.204 205.335C255.149 205.335 254.286 206.198 254.286 207.253C254.286 208.308 255.149 209.17 256.204 209.17ZM298.216 209.17C299.27 209.17 300.133 208.308 300.133 207.253C300.133 206.198 299.27 205.335 298.216 205.335C297.161 205.335 296.298 206.198 296.298 207.253C296.298 208.308 297.161 209.17 298.216 209.17ZM340.227 209.17C341.282 209.17 342.145 208.308 342.145 207.253C342.145 206.198 341.282 205.335 340.227 205.335C339.173 205.335 338.31 206.198 338.31 207.253C338.31 208.308 339.173 209.17 340.227 209.17ZM382.239 209.17C383.294 209.17 384.157 208.308 384.157 207.253C384.157 206.198 383.294 205.335 382.239 205.335C381.184 205.335 380.321 206.198 380.321 207.253C380.321 208.308 381.184 209.17 382.239 209.17ZM424.251 209.17C425.305 209.17 426.168 208.308 426.168 207.253C426.168 206.198 425.305 205.335 424.251 205.335C423.196 205.335 422.333 206.198 422.333 207.253C422.333 208.308 423.196 209.17 424.251 209.17ZM466.262 209.17C467.317 209.17 468.18 208.308 468.18 207.253C468.18 206.198 467.317 205.335 466.262 205.335C465.208 205.335 464.345 206.198 464.345 207.253C464.345 208.308 465.208 209.17 466.262 209.17ZM508.274 209.17C509.329 209.17 510.192 208.308 510.192 207.253C510.192 206.198 509.329 205.335 508.274 205.335C507.219 205.335 506.357 206.198 506.357 207.253C506.357 208.308 507.219 209.17 508.274 209.17ZM550.286 209.17C551.341 209.17 552.203 208.308 552.203 207.253C552.203 206.198 551.341 205.335 550.286 205.335C549.231 205.335 548.368 206.198 548.368 207.253C548.368 208.308 549.231 209.17 550.286 209.17ZM4.13352 245.17C5.18821 245.17 6.05114 244.308 6.05114 243.253C6.05114 242.198 5.18821 241.335 4.13352 241.335C3.07884 241.335 2.21591 242.198 2.21591 243.253C2.21591 244.308 3.07884 245.17 4.13352 245.17ZM46.1452 245.17C47.1999 245.17 48.0629 244.308 48.0629 243.253C48.0629 242.198 47.1999 241.335 46.1452 241.335C45.0906 241.335 44.2276 242.198 44.2276 243.253C44.2276 244.308 45.0906 245.17 46.1452 245.17ZM88.157 245.17C89.2116 245.17 90.0746 244.308 90.0746 243.253C90.0746 242.198 89.2116 241.335 88.157 241.335C87.1023 241.335 86.2393 242.198 86.2393 243.253C86.2393 244.308 87.1023 245.17 88.157 245.17ZM130.169 245.17C131.223 245.17 132.086 244.308 132.086 243.253C132.086 242.198 131.223 241.335 130.169 241.335C129.114 241.335 128.251 242.198 128.251 243.253C128.251 244.308 129.114 245.17 130.169 245.17ZM172.18 245.17C173.235 245.17 174.098 244.308 174.098 243.253C174.098 242.198 173.235 241.335 172.18 241.335C171.126 241.335 170.263 242.198 170.263 243.253C170.263 244.308 171.126 245.17 172.18 245.17ZM256.204 245.17C257.259 245.17 258.121 244.308 258.121 243.253C258.121 242.198 257.259 241.335 256.204 241.335C255.149 241.335 254.286 242.198 254.286 243.253C254.286 244.308 255.149 245.17 256.204 245.17ZM340.227 245.17C341.282 245.17 342.145 244.308 342.145 243.253C342.145 242.198 341.282 241.335 340.227 241.335C339.173 241.335 338.31 242.198 338.31 243.253C338.31 244.308 339.173 245.17 340.227 245.17ZM382.239 245.17C383.294 245.17 384.157 244.308 384.157 243.253C384.157 242.198 383.294 241.335 382.239 241.335C381.184 241.335 380.321 242.198 380.321 243.253C380.321 244.308 381.184 245.17 382.239 245.17ZM424.251 245.17C425.305 245.17 426.168 244.308 426.168 243.253C426.168 242.198 425.305 241.335 424.251 241.335C423.196 241.335 422.333 242.198 422.333 243.253C422.333 244.308 423.196 245.17 424.251 245.17ZM466.262 245.17C467.317 245.17 468.18 244.308 468.18 243.253C468.18 242.198 467.317 241.335 466.262 241.335C465.208 241.335 464.345 242.198 464.345 243.253C464.345 244.308 465.208 245.17 466.262 245.17ZM550.286 245.17C551.341 245.17 552.203 244.308 552.203 243.253C552.203 242.198 551.341 241.335 550.286 241.335C549.231 241.335 548.368 242.198 548.368 243.253C548.368 244.308 549.231 245.17 550.286 245.17Z" fill="#9D9D9D"/>
<path d="M88.157 29.1705C89.2116 29.1705 90.0746 28.3075 90.0746 27.2528C90.0746 26.1982 89.2116 25.3352 88.157 25.3352C87.1023 25.3352 86.2393 26.1982 86.2393 27.2528C86.2393 28.3075 87.1023 29.1705 88.157 29.1705ZM214.192 29.1705C215.247 29.1705 216.11 28.3075 216.11 27.2528C216.11 26.1982 215.247 25.3352 214.192 25.3352C213.137 25.3352 212.275 26.1982 212.275 27.2528C212.275 28.3075 213.137 29.1705 214.192 29.1705ZM550.286 29.1705C551.341 29.1705 552.203 28.3075 552.203 27.2528C552.203 26.1982 551.341 25.3352 550.286 25.3352C549.231 25.3352 548.368 26.1982 548.368 27.2528C548.368 28.3075 549.231 29.1705 550.286 29.1705ZM130.169 65.1705C131.223 65.1705 132.086 64.3075 132.086 63.2528C132.086 62.1982 131.223 61.3352 130.169 61.3352C129.114 61.3352 128.251 62.1982 128.251 63.2528C128.251 64.3075 129.114 65.1705 130.169 65.1705ZM298.216 65.1705C299.27 65.1705 300.133 64.3075 300.133 63.2528C300.133 62.1982 299.27 61.3352 298.216 61.3352C297.161 61.3352 296.298 62.1982 296.298 63.2528C296.298 64.3075 297.161 65.1705 298.216 65.1705ZM382.239 65.1705C383.294 65.1705 384.157 64.3075 384.157 63.2528C384.157 62.1982 383.294 61.3352 382.239 61.3352C381.184 61.3352 380.321 62.1982 380.321 63.2528C380.321 64.3075 381.184 65.1705 382.239 65.1705ZM46.1452 101.17C47.1999 101.17 48.0629 100.308 48.0629 99.2528C48.0629 98.1982 47.1999 97.3352 46.1452 97.3352C45.0906 97.3352 44.2276 98.1982 44.2276 99.2528C44.2276 100.308 45.0906 101.17 46.1452 101.17ZM424.251 101.17C425.305 101.17 426.168 100.308 426.168 99.2528C426.168 98.1982 425.305 97.3352 424.251 97.3352C423.196 97.3352 422.333 98.1982 422.333 99.2528C422.333 100.308 423.196 101.17 424.251 101.17ZM172.18 137.17C173.235 137.17 174.098 136.308 174.098 135.253C174.098 134.198 173.235 133.335 172.18 133.335C171.126 133.335 170.263 134.198 170.263 135.253C170.263 136.308 171.126 137.17 172.18 137.17ZM298.216 137.17C299.27 137.17 300.133 136.308 300.133 135.253C300.133 134.198 299.27 133.335 298.216 133.335C297.161 133.335 296.298 134.198 296.298 135.253C296.298 136.308 297.161 137.17 298.216 137.17ZM550.286 137.17C551.341 137.17 552.203 136.308 552.203 135.253C552.203 134.198 551.341 133.335 550.286 133.335C549.231 133.335 548.368 134.198 548.368 135.253C548.368 136.308 549.231 137.17 550.286 137.17ZM46.1452 173.17C47.1999 173.17 48.0629 172.308 48.0629 171.253C48.0629 170.198 47.1999 169.335 46.1452 169.335C45.0906 169.335 44.2276 170.198 44.2276 171.253C44.2276 172.308 45.0906 173.17 46.1452 173.17ZM214.192 173.17C215.247 173.17 216.11 172.308 216.11 171.253C216.11 170.198 215.247 169.335 214.192 169.335C213.137 169.335 212.275 170.198 212.275 171.253C212.275 172.308 213.137 173.17 214.192 173.17ZM382.239 173.17C383.294 173.17 384.157 172.308 384.157 171.253C384.157 170.198 383.294 169.335 382.239 169.335C381.184 169.335 380.321 170.198 380.321 171.253C380.321 172.308 381.184 173.17 382.239 173.17ZM466.262 173.17C467.317 173.17 468.18 172.308 468.18 171.253C468.18 170.198 467.317 169.335 466.262 169.335C465.208 169.335 464.345 170.198 464.345 171.253C464.345 172.308 465.208 173.17 466.262 173.17ZM214.192 245.17C215.247 245.17 216.11 244.308 216.11 243.253C216.11 242.198 215.247 241.335 214.192 241.335C213.137 241.335 212.275 242.198 212.275 243.253C212.275 244.308 213.137 245.17 214.192 245.17ZM298.216 245.17C299.27 245.17 300.133 244.308 300.133 243.253C300.133 242.198 299.27 241.335 298.216 241.335C297.161 241.335 296.298 242.198 296.298 243.253C296.298 244.308 297.161 245.17 298.216 245.17ZM508.274 245.17C509.329 245.17 510.192 244.308 510.192 243.253C510.192 242.198 509.329 241.335 508.274 241.335C507.219 241.335 506.357 242.198 506.357 243.253C506.357 244.308 507.219 245.17 508.274 245.17Z" fill="#FFC700"/>
<path d="M595.134 173.17C596.188 173.17 597.051 172.308 597.051 171.253C597.051 170.198 596.188 169.335 595.134 169.335C594.079 169.335 593.216 170.198 593.216 171.253C593.216 172.308 594.079 173.17 595.134 173.17ZM670.719 173.17C671.774 173.17 672.637 172.308 672.637 171.253C672.637 170.198 671.774 169.335 670.719 169.335C669.665 169.335 668.802 170.198 668.802 171.253C668.802 172.308 669.665 173.17 670.719 173.17ZM595.134 209.17C596.188 209.17 597.051 208.308 597.051 207.253C597.051 206.198 596.188 205.335 595.134 205.335C594.079 205.335 593.216 206.198 593.216 207.253C593.216 208.308 594.079 209.17 595.134 209.17ZM670.719 209.17C671.774 209.17 672.637 208.308 672.637 207.253C672.637 206.198 671.774 205.335 670.719 205.335C669.665 205.335 668.802 206.198 668.802 207.253C668.802 208.308 669.665 209.17 670.719 209.17ZM595.134 245.17C596.188 245.17 597.051 244.308 597.051 243.253C597.051 242.198 596.188 241.335 595.134 241.335C594.079 241.335 593.216 242.198 593.216 243.253C593.216 244.308 594.079 245.17 595.134 245.17ZM670.719 245.17C671.774 245.17 672.637 244.308 672.637 243.253C672.637 242.198 671.774 241.335 670.719 241.335C669.665 241.335 668.802 242.198 668.802 243.253C668.802 244.308 669.665 245.17 670.719 245.17Z" fill="#9D9D9D"/>
<path d="M628.708 173.17C629.762 173.17 630.625 172.308 630.625 171.253C630.625 170.198 629.762 169.335 628.708 169.335C627.653 169.335 626.79 170.198 626.79 171.253C626.79 172.308 627.653 173.17 628.708 173.17ZM628.708 209.17C629.762 209.17 630.625 208.308 630.625 207.253C630.625 206.198 629.762 205.335 628.708 205.335C627.653 205.335 626.79 206.198 626.79 207.253C626.79 208.308 627.653 209.17 628.708 209.17ZM628.708 245.17C629.762 245.17 630.625 244.308 630.625 243.253C630.625 242.198 629.762 241.335 628.708 241.335C627.653 241.335 626.79 242.198 626.79 243.253C626.79 244.308 627.653 245.17 628.708 245.17Z" fill="#FFC700"/>
</svg>
