<svg width="45" height="118" viewBox="0 0 45 118" fill="none" xmlns="http://www.w3.org/2000/svg">
<path d="M4.13352 29.1705C5.18821 29.1705 6.05114 28.3075 6.05114 27.2528C6.05114 26.1982 5.18821 25.3352 4.13352 25.3352C3.07884 25.3352 2.21591 26.1982 2.21591 27.2528C2.21591 28.3075 3.07884 29.1705 4.13352 29.1705ZM37.532 29.1705C38.5866 29.1705 39.4496 28.3075 39.4496 27.2528C39.4496 26.1982 38.5866 25.3352 37.532 25.3352C36.4773 25.3352 35.6143 26.1982 35.6143 27.2528C35.6143 28.3075 36.4773 29.1705 37.532 29.1705ZM4.13352 65.1705C5.18821 65.1705 6.05114 64.3075 6.05114 63.2528C6.05114 62.1982 5.18821 61.3352 4.13352 61.3352C3.07884 61.3352 2.21591 62.1982 2.21591 63.2528C2.21591 64.3075 3.07884 65.1705 4.13352 65.1705ZM20.8327 65.1705C21.8874 65.1705 22.7504 64.3075 22.7504 63.2528C22.7504 62.1982 21.8874 61.3352 20.8327 61.3352C19.7781 61.3352 18.9151 62.1982 18.9151 63.2528C18.9151 64.3075 19.7781 65.1705 20.8327 65.1705ZM37.532 65.1705C38.5866 65.1705 39.4496 64.3075 39.4496 63.2528C39.4496 62.1982 38.5866 61.3352 37.532 61.3352C36.4773 61.3352 35.6143 62.1982 35.6143 63.2528C35.6143 64.3075 36.4773 65.1705 37.532 65.1705ZM4.13352 101.17C5.18821 101.17 6.05114 100.308 6.05114 99.2528C6.05114 98.1982 5.18821 97.3352 4.13352 97.3352C3.07884 97.3352 2.21591 98.1982 2.21591 99.2528C2.21591 100.308 3.07884 101.17 4.13352 101.17ZM37.532 101.17C38.5866 101.17 39.4496 100.308 39.4496 99.2528C39.4496 98.1982 38.5866 97.3352 37.532 97.3352C36.4773 97.3352 35.6143 98.1982 35.6143 99.2528C35.6143 100.308 36.4773 101.17 37.532 101.17Z" fill="#9D9D9D"/>
<path d="M20.8327 29.1705C21.8874 29.1705 22.7504 28.3075 22.7504 27.2528C22.7504 26.1982 21.8874 25.3352 20.8327 25.3352C19.7781 25.3352 18.9151 26.1982 18.9151 27.2528C18.9151 28.3075 19.7781 29.1705 20.8327 29.1705ZM20.8327 101.17C21.8874 101.17 22.7504 100.308 22.7504 99.2528C22.7504 98.1982 21.8874 97.3352 20.8327 97.3352C19.7781 97.3352 18.9151 98.1982 18.9151 99.2528C18.9151 100.308 19.7781 101.17 20.8327 101.17Z" fill="#FFC700"/>
</svg>
