<svg width="80" height="77" viewBox="0 0 80 77" fill="none" xmlns="http://www.w3.org/2000/svg">
<path d="M2.13352 4.17045C3.18821 4.17045 4.05114 3.30753 4.05114 2.25284C4.05114 1.19815 3.18821 0.335227 2.13352 0.335227C1.07884 0.335227 0.215909 1.19815 0.215909 2.25284C0.215909 3.30753 1.07884 4.17045 2.13352 4.17045ZM77.7195 4.17045C78.7741 4.17045 79.6371 3.30753 79.6371 2.25284C79.6371 1.19815 78.7741 0.335227 77.7195 0.335227C76.6648 0.335227 75.8018 1.19815 75.8018 2.25284C75.8018 3.30753 76.6648 4.17045 77.7195 4.17045ZM2.13352 40.1705C3.18821 40.1705 4.05114 39.3075 4.05114 38.2528C4.05114 37.1982 3.18821 36.3352 2.13352 36.3352C1.07884 36.3352 0.215909 37.1982 0.215909 38.2528C0.215909 39.3075 1.07884 40.1705 2.13352 40.1705ZM77.7195 40.1705C78.7741 40.1705 79.6371 39.3075 79.6371 38.2528C79.6371 37.1982 78.7741 36.3352 77.7195 36.3352C76.6648 36.3352 75.8018 37.1982 75.8018 38.2528C75.8018 39.3075 76.6648 40.1705 77.7195 40.1705ZM2.13352 76.1705C3.18821 76.1705 4.05114 75.3075 4.05114 74.2528C4.05114 73.1982 3.18821 72.3352 2.13352 72.3352C1.07884 72.3352 0.215909 73.1982 0.215909 74.2528C0.215909 75.3075 1.07884 76.1705 2.13352 76.1705ZM77.7195 76.1705C78.7741 76.1705 79.6371 75.3075 79.6371 74.2528C79.6371 73.1982 78.7741 72.3352 77.7195 72.3352C76.6648 72.3352 75.8018 73.1982 75.8018 74.2528C75.8018 75.3075 76.6648 76.1705 77.7195 76.1705Z" fill="#9D9D9D"/>
<path d="M35.7077 4.17045C36.7624 4.17045 37.6254 3.30753 37.6254 2.25284C37.6254 1.19815 36.7624 0.335227 35.7077 0.335227C34.6531 0.335227 33.7901 1.19815 33.7901 2.25284C33.7901 3.30753 34.6531 4.17045 35.7077 4.17045ZM35.7077 40.1705C36.7624 40.1705 37.6254 39.3075 37.6254 38.2528C37.6254 37.1982 36.7624 36.3352 35.7077 36.3352C34.6531 36.3352 33.7901 37.1982 33.7901 38.2528C33.7901 39.3075 34.6531 40.1705 35.7077 40.1705ZM35.7077 76.1705C36.7624 76.1705 37.6254 75.3075 37.6254 74.2528C37.6254 73.1982 36.7624 72.3352 35.7077 72.3352C34.6531 72.3352 33.7901 73.1982 33.7901 74.2528C33.7901 75.3075 34.6531 76.1705 35.7077 76.1705Z" fill="#FFC700"/>
</svg>
