<svg width="39" height="40" viewBox="0 0 39 40" fill="none" xmlns="http://www.w3.org/2000/svg">
<path d="M0 0H39V40H0V0Z" fill="#F7DF1E"/>
<path d="M10.2545 33.4268L13.239 31.5743C13.8148 32.6214 14.3386 33.5073 15.5949 33.5073C16.7992 33.5073 17.5585 33.0241 17.5585 31.1447V18.3638H21.2235V31.1979C21.2235 35.0912 18.9984 36.8633 15.752 36.8633C12.8202 36.8633 11.1183 35.3059 10.2544 33.4265" fill="black"/>
<path d="M23.2144 33.0241L26.1985 31.252C26.9841 32.5678 28.0051 33.5343 29.8114 33.5343C31.3299 33.5343 32.2983 32.7556 32.2983 31.6816C32.2983 30.3927 31.3036 29.9362 29.6281 29.1847L28.7121 28.7816C26.0678 27.6273 24.3137 26.1774 24.3137 23.1164C24.3137 20.2971 26.408 18.1489 29.6806 18.1489C32.0105 18.1489 33.686 18.9814 34.8901 21.1563L32.0365 23.0357C31.4082 21.8812 30.7277 21.4249 29.6806 21.4249C28.6073 21.4249 27.9265 22.123 27.9265 23.0357C27.9265 24.1635 28.6073 24.62 30.1778 25.3182L31.094 25.7209C34.2094 27.0904 35.9635 28.4864 35.9635 31.6278C35.9635 35.0112 33.3718 36.8637 29.89 36.8637C26.4867 36.8637 24.2876 35.1991 23.2144 33.0241" fill="black"/>
</svg>
