<svg width="46" height="42" viewBox="0 0 46 42" fill="none" xmlns="http://www.w3.org/2000/svg">
<path d="M15.3334 33.25H9.58337V15.75H15.3334V33.25ZM36.4167 33.25H30.6667V23.9015C30.6667 21.4655 29.716 20.2528 27.832 20.2528C26.3389 20.2528 25.392 20.9318 24.9167 22.2915C24.9167 24.5 24.9167 33.25 24.9167 33.25H19.1667C19.1667 33.25 19.2434 17.5 19.1667 15.75H23.7054L24.0561 19.25H24.175C25.3537 17.5 27.2378 16.3135 29.8215 16.3135C31.786 16.3135 33.375 16.8123 34.5882 18.0653C35.8091 19.32 36.4167 21.0035 36.4167 23.3678V33.25Z" fill="#D7D7D7"/>
<path d="M12.4584 14C14.0991 14 15.4292 12.8247 15.4292 11.375C15.4292 9.92525 14.0991 8.75 12.4584 8.75C10.8176 8.75 9.48755 9.92525 9.48755 11.375C9.48755 12.8247 10.8176 14 12.4584 14Z" fill="#D7D7D7"/>
</svg>
