<svg width="237" height="31" viewBox="0 0 237 31" fill="none" xmlns="http://www.w3.org/2000/svg">
<path d="M8.63068 24H0.896307V2.18182H8.6946C10.8892 2.18182 12.7784 2.61861 14.3622 3.49219C15.946 4.35866 17.1641 5.60511 18.0163 7.23153C18.8757 8.85795 19.3054 10.804 19.3054 13.0696C19.3054 15.3423 18.8757 17.2955 18.0163 18.929C17.1641 20.5625 15.9389 21.8161 14.3409 22.6896C12.75 23.5632 10.8466 24 8.63068 24ZM5.50923 20.0476H8.43892C9.80256 20.0476 10.9496 19.8061 11.88 19.3232C12.8175 18.8331 13.5206 18.0767 13.9893 17.054C14.4652 16.0241 14.7031 14.696 14.7031 13.0696C14.7031 11.4574 14.4652 10.1399 13.9893 9.11719C13.5206 8.09446 12.821 7.34162 11.8906 6.85866C10.9602 6.37571 9.81321 6.13423 8.44957 6.13423H5.50923V20.0476ZM27.3034 24.3089C26.2594 24.3089 25.329 24.1278 24.5123 23.7656C23.6955 23.3963 23.0492 22.853 22.5733 22.1357C22.1046 21.4112 21.8702 20.5092 21.8702 19.4297C21.8702 18.5206 22.0371 17.7571 22.3709 17.1392C22.7047 16.5213 23.1593 16.0241 23.7346 15.6477C24.3098 15.2713 24.9632 14.9872 25.6948 14.7955C26.4334 14.6037 27.2076 14.4688 28.0172 14.3906C28.9689 14.2912 29.736 14.1989 30.3184 14.1136C30.9007 14.0213 31.3233 13.8864 31.5861 13.7088C31.8489 13.5312 31.9803 13.2685 31.9803 12.9205V12.8565C31.9803 12.1818 31.7672 11.6598 31.3411 11.2905C30.9221 10.9212 30.3255 10.7365 29.5513 10.7365C28.7346 10.7365 28.0847 10.9176 27.6017 11.2798C27.1188 11.6349 26.7992 12.0824 26.6429 12.6222L22.4455 12.2812C22.6586 11.2869 23.0776 10.4276 23.7026 9.70312C24.3276 8.97159 25.1337 8.41051 26.1209 8.01989C27.1152 7.62216 28.2658 7.4233 29.5726 7.4233C30.4817 7.4233 31.3517 7.52983 32.1827 7.7429C33.0208 7.95597 33.763 8.28622 34.4093 8.73366C35.0627 9.18111 35.5776 9.75639 35.954 10.4595C36.3304 11.1555 36.5186 11.9901 36.5186 12.9631V24H32.2147V21.7308H32.0868C31.824 22.2422 31.4725 22.6932 31.0321 23.0838C30.5918 23.4673 30.0627 23.7692 29.4448 23.9893C28.8269 24.2024 28.1131 24.3089 27.3034 24.3089ZM28.6032 21.1768C29.2708 21.1768 29.8603 21.0455 30.3716 20.7827C30.883 20.5128 31.2843 20.1506 31.5755 19.696C31.8667 19.2415 32.0123 18.7266 32.0123 18.1513V16.4148C31.8702 16.5071 31.6749 16.5923 31.4263 16.6705C31.1848 16.7415 30.9114 16.8089 30.606 16.8729C30.3006 16.9297 29.9952 16.983 29.6898 17.0327C29.3844 17.0753 29.1074 17.1143 28.8588 17.1499C28.3262 17.228 27.861 17.3523 27.4632 17.5227C27.0655 17.6932 26.7566 17.924 26.5364 18.2152C26.3162 18.4993 26.2061 18.8544 26.2061 19.2805C26.2061 19.8984 26.4299 20.3707 26.8773 20.6974C27.3319 21.017 27.9071 21.1768 28.6032 21.1768ZM44.5779 14.5398V24H40.0396V7.63636H44.3649V10.5234H44.5566C44.9189 9.57173 45.5261 8.81889 46.3784 8.26491C47.2306 7.70384 48.264 7.4233 49.4785 7.4233C50.6149 7.4233 51.6056 7.67188 52.4508 8.16903C53.296 8.66619 53.9529 9.37642 54.4217 10.2997C54.8904 11.2159 55.1248 12.3097 55.1248 13.581V24H50.5865V14.3906C50.5936 13.3892 50.3379 12.608 49.8194 12.0469C49.301 11.4787 48.5872 11.1946 47.6781 11.1946C47.0673 11.1946 46.5275 11.326 46.0588 11.5888C45.5971 11.8516 45.2349 12.2351 44.9721 12.7393C44.7164 13.2365 44.585 13.8366 44.5779 14.5398ZM58.7017 24V7.63636H63.2401V24H58.7017ZM60.9815 5.52699C60.3068 5.52699 59.728 5.30327 59.245 4.85582C58.7692 4.40128 58.5312 3.85795 58.5312 3.22585C58.5312 2.60085 58.7692 2.06463 59.245 1.61719C59.728 1.16264 60.3068 0.935368 60.9815 0.935368C61.6563 0.935368 62.2315 1.16264 62.7074 1.61719C63.1903 2.06463 63.4318 2.60085 63.4318 3.22585C63.4318 3.85795 63.1903 4.40128 62.7074 4.85582C62.2315 5.30327 61.6563 5.52699 60.9815 5.52699ZM74.3329 24.3196C72.6497 24.3196 71.2008 23.9787 69.9863 23.2969C68.7789 22.608 67.8485 21.6349 67.1951 20.3778C66.5417 19.1136 66.215 17.6186 66.215 15.8928C66.215 14.2095 66.5417 12.7322 67.1951 11.4609C67.8485 10.1896 68.7683 9.19886 69.9544 8.48864C71.1475 7.77841 72.5467 7.4233 74.1518 7.4233C75.2314 7.4233 76.2363 7.5973 77.1667 7.94531C78.1042 8.28622 78.921 8.80114 79.617 9.49006C80.3201 10.179 80.867 11.0455 81.2576 12.0895C81.6483 13.1264 81.8436 14.3409 81.8436 15.733V16.9794H68.0261V14.1669H77.5716C77.5716 13.5135 77.4295 12.9347 77.1454 12.4304C76.8613 11.9261 76.4672 11.532 75.9629 11.2479C75.4657 10.9567 74.8869 10.8111 74.2264 10.8111C73.5375 10.8111 72.9267 10.9709 72.394 11.2905C71.8684 11.603 71.4565 12.0256 71.1582 12.5582C70.8599 13.0838 70.7072 13.6697 70.7001 14.3161V16.9901C70.7001 17.7997 70.8493 18.4993 71.1475 19.0888C71.4529 19.6783 71.8826 20.1328 72.4366 20.4524C72.9906 20.772 73.6475 20.9318 74.4075 20.9318C74.9118 20.9318 75.3734 20.8608 75.7924 20.7188C76.2115 20.5767 76.5701 20.3636 76.8684 20.0795C77.1667 19.7955 77.394 19.4474 77.5502 19.0355L81.7477 19.3125C81.5346 20.321 81.0978 21.2017 80.4373 21.9545C79.7839 22.7003 78.9387 23.2827 77.9018 23.7017C76.872 24.1136 75.6824 24.3196 74.3329 24.3196ZM89.3436 2.18182V24H84.8052V2.18182H89.3436ZM123.228 2.18182V24H119.243L109.751 10.2678H109.591V24H104.978V2.18182H109.027L118.444 15.9034H118.636V2.18182H123.228ZM131.62 24.3089C130.576 24.3089 129.645 24.1278 128.829 23.7656C128.012 23.3963 127.366 22.853 126.89 22.1357C126.421 21.4112 126.187 20.5092 126.187 19.4297C126.187 18.5206 126.354 17.7571 126.687 17.1392C127.021 16.5213 127.476 16.0241 128.051 15.6477C128.626 15.2713 129.28 14.9872 130.011 14.7955C130.75 14.6037 131.524 14.4688 132.334 14.3906C133.285 14.2912 134.052 14.1989 134.635 14.1136C135.217 14.0213 135.64 13.8864 135.903 13.7088C136.165 13.5312 136.297 13.2685 136.297 12.9205V12.8565C136.297 12.1818 136.084 11.6598 135.657 11.2905C135.238 10.9212 134.642 10.7365 133.868 10.7365C133.051 10.7365 132.401 10.9176 131.918 11.2798C131.435 11.6349 131.116 12.0824 130.959 12.6222L126.762 12.2812C126.975 11.2869 127.394 10.4276 128.019 9.70312C128.644 8.97159 129.45 8.41051 130.437 8.01989C131.432 7.62216 132.582 7.4233 133.889 7.4233C134.798 7.4233 135.668 7.52983 136.499 7.7429C137.337 7.95597 138.079 8.28622 138.726 8.73366C139.379 9.18111 139.894 9.75639 140.27 10.4595C140.647 11.1555 140.835 11.9901 140.835 12.9631V24H136.531V21.7308H136.403C136.14 22.2422 135.789 22.6932 135.349 23.0838C134.908 23.4673 134.379 23.7692 133.761 23.9893C133.143 24.2024 132.43 24.3089 131.62 24.3089ZM132.92 21.1768C133.587 21.1768 134.177 21.0455 134.688 20.7827C135.199 20.5128 135.601 20.1506 135.892 19.696C136.183 19.2415 136.329 18.7266 136.329 18.1513V16.4148C136.187 16.5071 135.991 16.5923 135.743 16.6705C135.501 16.7415 135.228 16.8089 134.922 16.8729C134.617 16.9297 134.312 16.983 134.006 17.0327C133.701 17.0753 133.424 17.1143 133.175 17.1499C132.643 17.228 132.177 17.3523 131.78 17.5227C131.382 17.6932 131.073 17.924 130.853 18.2152C130.633 18.4993 130.523 18.8544 130.523 19.2805C130.523 19.8984 130.746 20.3707 131.194 20.6974C131.648 21.017 132.224 21.1768 132.92 21.1768ZM148.468 19.2912L148.479 13.8473H149.139L154.381 7.63636H159.59L152.548 15.8608H151.472L148.468 19.2912ZM144.356 24V2.18182H148.894V24H144.356ZM154.583 24L149.768 16.8729L152.794 13.6662L159.899 24H154.583ZM166.483 24.3089C165.439 24.3089 164.509 24.1278 163.692 23.7656C162.875 23.3963 162.229 22.853 161.753 22.1357C161.284 21.4112 161.05 20.5092 161.05 19.4297C161.05 18.5206 161.217 17.7571 161.551 17.1392C161.884 16.5213 162.339 16.0241 162.914 15.6477C163.49 15.2713 164.143 14.9872 164.874 14.7955C165.613 14.6037 166.387 14.4688 167.197 14.3906C168.149 14.2912 168.916 14.1989 169.498 14.1136C170.08 14.0213 170.503 13.8864 170.766 13.7088C171.029 13.5312 171.16 13.2685 171.16 12.9205V12.8565C171.16 12.1818 170.947 11.6598 170.521 11.2905C170.102 10.9212 169.505 10.7365 168.731 10.7365C167.914 10.7365 167.264 10.9176 166.781 11.2798C166.298 11.6349 165.979 12.0824 165.823 12.6222L161.625 12.2812C161.838 11.2869 162.257 10.4276 162.882 9.70312C163.507 8.97159 164.313 8.41051 165.301 8.01989C166.295 7.62216 167.445 7.4233 168.752 7.4233C169.661 7.4233 170.531 7.52983 171.362 7.7429C172.2 7.95597 172.943 8.28622 173.589 8.73366C174.242 9.18111 174.757 9.75639 175.134 10.4595C175.51 11.1555 175.698 11.9901 175.698 12.9631V24H171.394V21.7308H171.267C171.004 22.2422 170.652 22.6932 170.212 23.0838C169.771 23.4673 169.242 23.7692 168.624 23.9893C168.007 24.2024 167.293 24.3089 166.483 24.3089ZM167.783 21.1768C168.45 21.1768 169.04 21.0455 169.551 20.7827C170.063 20.5128 170.464 20.1506 170.755 19.696C171.046 19.2415 171.192 18.7266 171.192 18.1513V16.4148C171.05 16.5071 170.855 16.5923 170.606 16.6705C170.365 16.7415 170.091 16.8089 169.786 16.8729C169.48 16.9297 169.175 16.983 168.869 17.0327C168.564 17.0753 168.287 17.1143 168.039 17.1499C167.506 17.228 167.041 17.3523 166.643 17.5227C166.245 17.6932 165.936 17.924 165.716 18.2152C165.496 18.4993 165.386 18.8544 165.386 19.2805C165.386 19.8984 165.61 20.3707 166.057 20.6974C166.512 21.017 167.087 21.1768 167.783 21.1768ZM179.219 7.63636H183.758V24.8097C183.758 26.0739 183.509 27.0966 183.012 27.8778C182.515 28.6591 181.801 29.2308 180.871 29.593C179.947 29.9553 178.843 30.1364 177.557 30.1364C177.401 30.1364 177.252 30.1328 177.11 30.1257C176.961 30.1257 176.805 30.1222 176.641 30.1151V26.5675C176.762 26.5746 176.868 26.5781 176.961 26.5781C177.046 26.5852 177.138 26.5888 177.238 26.5888C177.969 26.5888 178.481 26.4325 178.772 26.12C179.07 25.8146 179.219 25.353 179.219 24.7351V7.63636ZM181.478 5.52699C180.81 5.52699 180.235 5.30327 179.752 4.85582C179.269 4.40128 179.028 3.85795 179.028 3.22585C179.028 2.60085 179.269 2.06463 179.752 1.61719C180.235 1.16264 180.81 0.935368 181.478 0.935368C182.16 0.935368 182.738 1.16264 183.214 1.61719C183.697 2.06463 183.939 2.60085 183.939 3.22585C183.939 3.85795 183.697 4.40128 183.214 4.85582C182.738 5.30327 182.16 5.52699 181.478 5.52699ZM187.393 24V7.63636H191.931V24H187.393ZM189.673 5.52699C188.998 5.52699 188.419 5.30327 187.936 4.85582C187.461 4.40128 187.223 3.85795 187.223 3.22585C187.223 2.60085 187.461 2.06463 187.936 1.61719C188.419 1.16264 188.998 0.935368 189.673 0.935368C190.348 0.935368 190.923 1.16264 191.399 1.61719C191.882 2.06463 192.123 2.60085 192.123 3.22585C192.123 3.85795 191.882 4.40128 191.399 4.85582C190.923 5.30327 190.348 5.52699 189.673 5.52699ZM195.567 24V7.63636H199.892V10.5234H200.084C200.425 9.56463 200.993 8.80824 201.789 8.25426C202.584 7.70028 203.536 7.4233 204.644 7.4233C205.766 7.4233 206.721 7.70384 207.509 8.26491C208.298 8.81889 208.823 9.57173 209.086 10.5234H209.257C209.59 9.58594 210.194 8.83665 211.068 8.27557C211.948 7.70739 212.989 7.4233 214.189 7.4233C215.716 7.4233 216.955 7.9098 217.907 8.88281C218.866 9.84872 219.345 11.2195 219.345 12.995V24H214.818V13.8899C214.818 12.9808 214.576 12.299 214.093 11.8445C213.61 11.3899 213.007 11.1626 212.282 11.1626C211.458 11.1626 210.816 11.4254 210.354 11.951C209.892 12.4695 209.661 13.1548 209.661 14.0071V24H205.262V13.794C205.262 12.9915 205.031 12.3523 204.569 11.8764C204.115 11.4006 203.514 11.1626 202.769 11.1626C202.264 11.1626 201.81 11.2905 201.405 11.5462C201.007 11.7947 200.691 12.1463 200.457 12.6009C200.222 13.0483 200.105 13.5739 200.105 14.1776V24H195.567ZM227.596 24.3089C226.552 24.3089 225.622 24.1278 224.805 23.7656C223.988 23.3963 223.342 22.853 222.866 22.1357C222.398 21.4112 222.163 20.5092 222.163 19.4297C222.163 18.5206 222.33 17.7571 222.664 17.1392C222.998 16.5213 223.452 16.0241 224.028 15.6477C224.603 15.2713 225.256 14.9872 225.988 14.7955C226.726 14.6037 227.501 14.4688 228.31 14.3906C229.262 14.2912 230.029 14.1989 230.611 14.1136C231.194 14.0213 231.616 13.8864 231.879 13.7088C232.142 13.5312 232.273 13.2685 232.273 12.9205V12.8565C232.273 12.1818 232.06 11.6598 231.634 11.2905C231.215 10.9212 230.618 10.7365 229.844 10.7365C229.028 10.7365 228.378 10.9176 227.895 11.2798C227.412 11.6349 227.092 12.0824 226.936 12.6222L222.738 12.2812C222.952 11.2869 223.371 10.4276 223.996 9.70312C224.621 8.97159 225.427 8.41051 226.414 8.01989C227.408 7.62216 228.559 7.4233 229.866 7.4233C230.775 7.4233 231.645 7.52983 232.476 7.7429C233.314 7.95597 234.056 8.28622 234.702 8.73366C235.356 9.18111 235.871 9.75639 236.247 10.4595C236.623 11.1555 236.812 11.9901 236.812 12.9631V24H232.508V21.7308H232.38C232.117 22.2422 231.765 22.6932 231.325 23.0838C230.885 23.4673 230.356 23.7692 229.738 23.9893C229.12 24.2024 228.406 24.3089 227.596 24.3089ZM228.896 21.1768C229.564 21.1768 230.153 21.0455 230.665 20.7827C231.176 20.5128 231.577 20.1506 231.868 19.696C232.16 19.2415 232.305 18.7266 232.305 18.1513V16.4148C232.163 16.5071 231.968 16.5923 231.719 16.6705C231.478 16.7415 231.204 16.8089 230.899 16.8729C230.594 16.9297 230.288 16.983 229.983 17.0327C229.677 17.0753 229.4 17.1143 229.152 17.1499C228.619 17.228 228.154 17.3523 227.756 17.5227C227.358 17.6932 227.05 17.924 226.829 18.2152C226.609 18.4993 226.499 18.8544 226.499 19.2805C226.499 19.8984 226.723 20.3707 227.17 20.6974C227.625 21.017 228.2 21.1768 228.896 21.1768Z" fill="white"/>
<path d="M97.1197 24.3693C96.1822 24.3693 95.3772 24.0379 94.7049 23.375C94.042 22.7027 93.7106 21.8977 93.7106 20.9602C93.7106 20.0322 94.042 19.2367 94.7049 18.5739C95.3772 17.911 96.1822 17.5795 97.1197 17.5795C98.0288 17.5795 98.8242 17.911 99.506 18.5739C100.188 19.2367 100.529 20.0322 100.529 20.9602C100.529 21.5852 100.368 22.1581 100.046 22.679C99.7333 23.1903 99.3214 23.6023 98.81 23.9148C98.2987 24.2178 97.7352 24.3693 97.1197 24.3693Z" fill="#FFC700"/>
</svg>
