<svg width="251" height="30" viewBox="0 0 251 30" fill="none" xmlns="http://www.w3.org/2000/svg">
<path d="M18.99 12.78C18.99 11.64 18.86 10.5 18.6 9.36C18.36 8.22 17.96 7.18 17.4 6.24C16.84 5.3 16.1 4.55 15.18 3.99C14.26 3.41 13.13 3.12 11.79 3.12C10.43 3.12 9.09 3.15 7.77 3.21V21.57C7.77 22.09 7.85 22.46 8.01 22.68C8.17 22.9 8.53 23.01 9.09 23.01C9.77 23.01 10.48 22.98 11.22 22.92C11.98 22.86 12.71 22.73 13.41 22.53C14.13 22.31 14.76 21.99 15.3 21.57C16.6 20.51 17.54 19.19 18.12 17.61C18.7 16.03 18.99 14.42 18.99 12.78ZM23.34 12.36C23.34 13.64 23.15 14.9 22.77 16.14C22.39 17.38 21.83 18.53 21.09 19.59C20.37 20.63 19.47 21.51 18.39 22.23C17.69 22.69 16.87 23.07 15.93 23.37C14.99 23.65 14.03 23.85 13.05 23.97C12.09 24.09 11.19 24.15 10.35 24.15C9.65 24.15 8.95 24.12 8.25 24.06C7.57 24.02 6.88 24 6.18 24C5.68 24 5.17 24 4.65 24C4.15 24.02 3.64 24.05 3.12 24.09C2.92 24.11 2.73 24.12 2.55 24.12C2.37 24.14 2.19 24.15 2.01 24.15C1.65 24.15 1.47 23.99 1.47 23.67C1.47 23.47 1.56 23.34 1.74 23.28C1.92 23.22 2.12 23.18 2.34 23.16C2.56 23.12 2.73 23.08 2.85 23.04C3.19 22.88 3.41 22.63 3.51 22.29C3.61 21.95 3.66 21.62 3.66 21.3C3.66 19.48 3.66 17.67 3.66 15.87C3.66 14.07 3.66 12.27 3.66 10.47C3.66 9.43 3.66 8.4 3.66 7.38C3.68 6.34 3.66 5.31 3.6 4.29C3.6 4.25 3.59 4.17 3.57 4.05C3.57 3.91 3.57 3.83 3.57 3.81C3.51 3.57 3.35 3.41 3.09 3.33C2.83 3.25 2.55 3.22 2.25 3.24C1.95 3.24 1.7 3.24 1.5 3.24C1.34 3.24 1.19 3.21 1.05 3.15C0.91 3.07 0.84 2.93 0.84 2.73C0.84 2.35 1.03 2.16 1.41 2.16C1.91 2.16 2.4 2.18 2.88 2.22C3.38 2.24 3.88 2.25 4.38 2.25C5.8 2.25 7.22 2.2 8.64 2.1C10.08 1.98 11.51 1.92 12.93 1.92C15.09 1.92 16.95 2.34 18.51 3.18C20.07 4.02 21.26 5.22 22.08 6.78C22.92 8.34 23.34 10.2 23.34 12.36ZM34.6587 20.82C34.5987 19.88 34.5587 18.94 34.5387 18C34.5187 17.04 34.5187 16.08 34.5387 15.12C33.7187 15.26 32.9187 15.52 32.1387 15.9C31.3787 16.26 30.7487 16.75 30.2487 17.37C29.7487 17.99 29.4987 18.78 29.4987 19.74C29.4987 20.14 29.5487 20.57 29.6487 21.03C29.7687 21.49 29.9687 21.88 30.2487 22.2C30.5487 22.5 30.9487 22.65 31.4487 22.65C31.8087 22.65 32.1887 22.55 32.5887 22.35C32.9887 22.13 33.3687 21.88 33.7287 21.6C34.1087 21.32 34.4187 21.06 34.6587 20.82ZM40.8387 22.59C40.8387 22.67 40.7987 22.76 40.7187 22.86C40.6587 22.96 40.5987 23.04 40.5387 23.1C39.9187 23.82 39.1187 24.18 38.1387 24.18C37.2787 24.18 36.5887 23.99 36.0687 23.61C35.5487 23.23 35.1487 22.64 34.8687 21.84C34.2287 22.52 33.5387 23.06 32.7987 23.46C32.0787 23.86 31.2287 24.06 30.2487 24.06C29.5487 24.06 28.8387 23.91 28.1187 23.61C27.4187 23.29 26.8287 22.84 26.3487 22.26C25.8887 21.68 25.6587 21.01 25.6587 20.25C25.6587 19.49 25.8487 18.82 26.2287 18.24C26.6287 17.64 27.1287 17.13 27.7287 16.71C28.3287 16.27 28.9387 15.91 29.5587 15.63C30.3587 15.29 31.1787 15.03 32.0187 14.85C32.8587 14.65 33.6987 14.45 34.5387 14.25V14.13C34.5387 13.77 34.5287 13.29 34.5087 12.69C34.5087 12.07 34.4487 11.46 34.3287 10.86C34.2087 10.24 34.0087 9.72 33.7287 9.3C33.4487 8.86 33.0387 8.64 32.4987 8.64C31.8787 8.64 31.3187 8.82 30.8187 9.18C30.3387 9.54 29.9987 10.02 29.7987 10.62C29.7587 10.8 29.7287 10.98 29.7087 11.16C29.6887 11.32 29.6587 11.49 29.6187 11.67C29.5787 11.99 29.3887 12.21 29.0487 12.33C28.7287 12.43 28.4287 12.48 28.1487 12.48C27.8087 12.48 27.4787 12.41 27.1587 12.27C26.8387 12.11 26.6787 11.82 26.6787 11.4C26.6787 11.24 26.6987 11.1 26.7387 10.98C26.7987 10.84 26.8587 10.7 26.9187 10.56C27.2387 9.8 27.7187 9.24 28.3587 8.88C28.9987 8.52 29.6987 8.28 30.4587 8.16C31.2387 8.04 31.9787 7.98 32.6787 7.98C34.3187 7.98 35.6687 8.42 36.7287 9.3C37.7887 10.18 38.3187 11.48 38.3187 13.2V17.73C38.2987 18.29 38.2887 18.87 38.2887 19.47C38.3087 20.05 38.3387 20.63 38.3787 21.21C38.4187 21.55 38.4987 21.88 38.6187 22.2C38.7387 22.5 39.0087 22.65 39.4287 22.65C39.7087 22.65 39.9387 22.59 40.1187 22.47C40.3187 22.35 40.4987 22.29 40.6587 22.29C40.7387 22.29 40.7887 22.33 40.8087 22.41C40.8287 22.49 40.8387 22.55 40.8387 22.59ZM59.227 23.58C59.227 23.9 59.067 24.06 58.747 24.06C58.167 24.06 57.577 24.04 56.977 24C56.397 23.98 55.817 23.97 55.237 23.97C54.677 23.97 54.107 23.98 53.527 24C52.947 24.04 52.367 24.06 51.787 24.06C51.647 24.06 51.547 24.01 51.487 23.91C51.427 23.79 51.397 23.67 51.397 23.55C51.397 23.25 51.557 23.1 51.877 23.1C52.057 23.1 52.237 23.11 52.417 23.13C52.597 23.13 52.777 23.13 52.957 23.13C53.257 23.13 53.407 23 53.407 22.74C53.407 21.06 53.407 19.38 53.407 17.7C53.427 16.02 53.437 14.34 53.437 12.66C53.437 12.12 53.387 11.56 53.287 10.98C53.207 10.4 53.007 9.91 52.687 9.51C52.387 9.11 51.887 8.91 51.187 8.91C50.747 8.91 50.287 9.07 49.807 9.39C49.347 9.71 48.927 10.09 48.547 10.53C48.187 10.97 47.927 11.38 47.767 11.76V22.38C47.767 22.56 47.787 22.73 47.827 22.89C47.887 23.05 48.027 23.13 48.247 23.13C48.407 23.13 48.567 23.13 48.727 23.13C48.907 23.11 49.077 23.1 49.237 23.1C49.337 23.1 49.437 23.14 49.537 23.22C49.637 23.3 49.687 23.39 49.687 23.49C49.687 23.87 49.527 24.06 49.207 24.06C48.647 24.06 48.087 24.04 47.527 24C46.987 23.94 46.427 23.91 45.847 23.91C45.247 23.91 44.637 23.94 44.017 24C43.417 24.04 42.807 24.06 42.187 24.06C42.047 24.06 41.947 24.01 41.887 23.91C41.827 23.79 41.797 23.67 41.797 23.55C41.797 23.25 41.957 23.1 42.277 23.1C42.457 23.1 42.637 23.11 42.817 23.13C42.997 23.13 43.187 23.13 43.387 23.13C43.667 23.13 43.827 23.07 43.867 22.95C43.907 22.83 43.927 22.64 43.927 22.38V18.03C43.927 16.81 43.927 15.59 43.927 14.37C43.927 13.15 43.927 11.93 43.927 10.71C43.927 10.49 43.897 10.25 43.837 9.99C43.777 9.71 43.597 9.57 43.297 9.57C43.097 9.57 42.897 9.58 42.697 9.6C42.517 9.62 42.327 9.63 42.127 9.63C42.007 9.63 41.867 9.61 41.707 9.57C41.567 9.51 41.497 9.4 41.497 9.24C41.497 9.12 41.537 9.03 41.617 8.97C41.697 8.91 41.787 8.87 41.887 8.85C42.087 8.79 42.297 8.75 42.517 8.73C42.737 8.71 42.947 8.68 43.147 8.64C43.667 8.54 44.177 8.43 44.677 8.31C45.197 8.17 45.707 8.03 46.207 7.89C46.287 7.85 46.367 7.82 46.447 7.8C46.527 7.76 46.607 7.74 46.687 7.74C46.847 7.74 46.987 7.89 47.107 8.19C47.247 8.49 47.357 8.81 47.437 9.15C47.537 9.49 47.597 9.73 47.617 9.87C48.197 9.35 48.897 8.89 49.717 8.49C50.537 8.07 51.347 7.86 52.147 7.86C53.487 7.86 54.527 8.03 55.267 8.37C56.027 8.71 56.567 9.28 56.887 10.08C57.207 10.86 57.367 11.91 57.367 13.23C57.367 14.79 57.357 16.35 57.337 17.91C57.317 19.47 57.307 21.03 57.307 22.59C57.307 22.79 57.367 22.94 57.487 23.04C57.627 23.12 57.797 23.16 57.997 23.16C58.137 23.16 58.267 23.15 58.387 23.13C58.527 23.11 58.667 23.1 58.807 23.1C59.087 23.1 59.227 23.26 59.227 23.58ZM69.3321 23.64C69.3321 23.96 69.1721 24.12 68.8521 24.12C68.2721 24.12 67.6821 24.09 67.0821 24.03C66.4821 23.99 65.8821 23.97 65.2821 23.97C64.6821 23.97 64.0721 23.99 63.4521 24.03C62.8521 24.09 62.2521 24.12 61.6521 24.12C61.5121 24.12 61.4121 24.07 61.3521 23.97C61.2921 23.85 61.2621 23.74 61.2621 23.64C61.2621 23.32 61.4121 23.16 61.7121 23.16C61.9121 23.16 62.1021 23.17 62.2821 23.19C62.4621 23.21 62.6421 23.22 62.8221 23.22C63.0621 23.22 63.2121 23.14 63.2721 22.98C63.3521 22.82 63.3921 22.64 63.3921 22.44V10.53C63.3921 10.33 63.3721 10.11 63.3321 9.87C63.2921 9.61 63.1321 9.48 62.8521 9.48C62.5921 9.48 62.3221 9.5 62.0421 9.54C61.7621 9.58 61.4821 9.6 61.2021 9.6C61.0821 9.6 60.9621 9.57 60.8421 9.51C60.7421 9.45 60.6921 9.35 60.6921 9.21C60.6921 8.95 60.8221 8.78 61.0821 8.7C61.3021 8.66 61.5321 8.63 61.7721 8.61C62.0321 8.57 62.2721 8.54 62.4921 8.52C63.1921 8.42 63.8721 8.3 64.5321 8.16C65.2121 8 65.8921 7.84 66.5721 7.68C66.6321 7.68 66.6921 7.68 66.7521 7.68C66.8121 7.66 66.8621 7.65 66.9021 7.65C67.2021 7.65 67.3521 7.77 67.3521 8.01C67.3521 10.41 67.3421 12.82 67.3221 15.24C67.3021 17.64 67.2921 20.04 67.2921 22.44C67.2921 22.8 67.3721 23.03 67.5321 23.13C67.6921 23.21 67.8921 23.24 68.1321 23.22C68.3921 23.2 68.6521 23.19 68.9121 23.19C69.1921 23.19 69.3321 23.34 69.3321 23.64ZM67.4421 3.03C67.4421 3.65 67.2121 4.19 66.7521 4.65C66.3121 5.11 65.7721 5.34 65.1321 5.34C64.5121 5.34 63.9721 5.11 63.5121 4.65C63.0521 4.19 62.8221 3.65 62.8221 3.03C62.8221 2.39 63.0521 1.85 63.5121 1.41C63.9721 0.949999 64.5121 0.719999 65.1321 0.719999C65.7721 0.719999 66.3121 0.949999 66.7521 1.41C67.2121 1.85 67.4421 2.39 67.4421 3.03ZM81.5646 13.47C81.5646 13.07 81.5446 12.59 81.5046 12.03C81.4646 11.47 81.3646 10.93 81.2046 10.41C81.0646 9.87 80.8346 9.42 80.5146 9.06C80.1946 8.7 79.7546 8.52 79.1946 8.52C78.6546 8.52 78.1746 8.7 77.7546 9.06C77.3546 9.4 77.0146 9.84 76.7346 10.38C76.4546 10.9 76.2346 11.45 76.0746 12.03C75.9146 12.59 75.7946 13.09 75.7146 13.53C76.0546 13.53 76.3846 13.54 76.7046 13.56C77.0446 13.56 77.3746 13.56 77.6946 13.56C78.9946 13.56 80.2846 13.53 81.5646 13.47ZM85.8846 20.1C85.8846 20.16 85.8646 20.25 85.8246 20.37C85.8046 20.47 85.7746 20.55 85.7346 20.61C85.5946 20.93 85.3346 21.3 84.9546 21.72C84.5746 22.12 84.2346 22.43 83.9346 22.65C82.5946 23.67 81.0446 24.18 79.2846 24.18C77.7046 24.18 76.3346 23.85 75.1746 23.19C74.0146 22.51 73.1246 21.57 72.5046 20.37C71.8846 19.17 71.5746 17.79 71.5746 16.23C71.5746 14.67 71.8746 13.26 72.4746 12C73.0946 10.72 73.9746 9.71 75.1146 8.97C76.2746 8.21 77.6646 7.83 79.2846 7.83C81.1446 7.83 82.6346 8.34 83.7546 9.36C84.8746 10.38 85.4346 11.84 85.4346 13.74C85.4346 14.26 85.1946 14.52 84.7146 14.52C83.8346 14.52 82.9546 14.51 82.0746 14.49C81.1946 14.47 80.3146 14.46 79.4346 14.46C78.7946 14.46 78.1546 14.46 77.5146 14.46C76.8746 14.46 76.2346 14.47 75.5946 14.49C75.5346 15.09 75.5046 15.7 75.5046 16.32C75.5046 16.88 75.5746 17.54 75.7146 18.3C75.8746 19.06 76.1046 19.8 76.4046 20.52C76.7246 21.24 77.1346 21.84 77.6346 22.32C78.1346 22.78 78.7446 23.01 79.4646 23.01C80.3646 23.01 81.1146 22.88 81.7146 22.62C82.3346 22.36 82.8846 21.99 83.3646 21.51C83.8446 21.03 84.3346 20.46 84.8346 19.8C84.8946 19.72 84.9546 19.66 85.0146 19.62C85.0946 19.56 85.1846 19.53 85.2846 19.53C85.4246 19.53 85.5546 19.59 85.6746 19.71C85.8146 19.81 85.8846 19.94 85.8846 20.1ZM96.1423 23.61C96.1423 23.93 95.9823 24.09 95.6623 24.09C95.0423 24.09 94.4323 24.06 93.8323 24C93.2323 23.96 92.6223 23.94 92.0023 23.94C91.3623 23.94 90.7123 23.96 90.0523 24C89.4123 24.06 88.7723 24.09 88.1323 24.09C87.9923 24.09 87.8923 24.04 87.8323 23.94C87.7723 23.82 87.7423 23.7 87.7423 23.58C87.7423 23.36 87.8423 23.22 88.0423 23.16C88.2623 23.1 88.5023 23.08 88.7623 23.1C89.0423 23.12 89.2523 23.13 89.3923 23.13C89.8323 23.13 90.0523 22.89 90.0523 22.41V19.98C90.0523 17.34 90.0523 14.71 90.0523 12.09C90.0523 9.45 90.0523 6.81 90.0523 4.17C90.0523 3.95 90.0323 3.68 89.9923 3.36C89.9523 3.02 89.7623 2.85 89.4223 2.85C89.1823 2.85 88.9423 2.89 88.7023 2.97C88.4823 3.03 88.2523 3.06 88.0123 3.06C87.7123 3.06 87.5623 2.9 87.5623 2.58C87.5623 2.36 87.6923 2.2 87.9523 2.1C88.2123 2.02 88.4823 1.96 88.7623 1.92C89.0623 1.88 89.3423 1.83 89.6023 1.77C90.2023 1.63 90.7923 1.49 91.3723 1.35C91.9723 1.19 92.5623 1.04 93.1423 0.899999C93.2023 0.879999 93.2623 0.869999 93.3223 0.869999C93.3823 0.849999 93.4423 0.84 93.5023 0.84C93.6223 0.84 93.7323 0.869999 93.8323 0.929998C93.9523 0.969999 94.0123 1.07 94.0123 1.23C94.0123 4.75 94.0023 8.28 93.9823 11.82C93.9623 15.36 93.9523 18.89 93.9523 22.41C93.9523 22.75 94.0523 22.97 94.2523 23.07C94.4523 23.17 94.6923 23.21 94.9723 23.19C95.2523 23.15 95.5023 23.13 95.7223 23.13C96.0023 23.13 96.1423 23.29 96.1423 23.61ZM133.908 2.46C133.908 2.84 133.718 3.03 133.338 3.03C133.178 3.03 133.018 3.02 132.858 3C132.698 2.98 132.538 2.97 132.378 2.97C132.298 2.97 132.208 2.98 132.108 3C132.008 3 131.908 3 131.808 3C131.608 3 131.478 3.13 131.418 3.39C131.358 3.63 131.328 3.9 131.328 4.2C131.328 4.48 131.328 4.68 131.328 4.8V23.49C131.328 23.63 131.308 23.75 131.268 23.85C131.248 23.95 131.148 24.01 130.968 24.03C130.688 24.07 130.388 24.08 130.068 24.06C129.748 24.06 129.448 24.07 129.168 24.09C129.008 23.57 128.778 23.07 128.478 22.59C128.198 22.11 127.898 21.65 127.578 21.21C125.738 18.53 123.788 15.94 121.728 13.44C119.688 10.94 117.728 8.37 115.848 5.73C115.848 8.43 115.838 11.13 115.818 13.83C115.818 16.51 115.818 19.2 115.818 21.9C115.818 22.08 115.838 22.31 115.878 22.59C115.938 22.85 116.088 22.98 116.328 22.98C116.608 22.98 116.888 22.97 117.168 22.95C117.468 22.93 117.748 22.92 118.008 22.92C118.168 22.92 118.268 23 118.308 23.16C118.368 23.3 118.398 23.42 118.398 23.52C118.398 23.66 118.358 23.79 118.278 23.91C118.218 24.03 118.108 24.09 117.948 24.09C117.608 24.09 117.268 24.07 116.928 24.03C116.588 23.99 116.248 23.97 115.908 23.97C115.448 23.97 114.978 23.98 114.498 24C114.018 24 113.548 24.02 113.088 24.06C112.908 24.08 112.728 24.09 112.548 24.09C112.388 24.11 112.228 24.12 112.068 24.12C111.668 24.12 111.468 23.91 111.468 23.49C111.468 23.33 111.528 23.2 111.648 23.1C111.768 22.98 111.898 22.92 112.038 22.92C112.238 22.92 112.428 22.94 112.608 22.98C112.788 23 112.978 23.01 113.178 23.01C113.478 23.01 113.698 22.97 113.838 22.89C113.998 22.79 114.078 22.56 114.078 22.2C114.078 19.44 114.098 16.68 114.138 13.92C114.198 11.16 114.228 8.4 114.228 5.64C114.228 5.38 114.228 5.13 114.228 4.89C114.228 4.65 114.228 4.4 114.228 4.14C114.228 3.88 114.178 3.62 114.078 3.36C113.998 3.1 113.798 2.97 113.478 2.97C113.238 2.97 112.988 2.98 112.728 3C112.488 3.02 112.238 3.03 111.978 3.03C111.638 3.03 111.468 2.84 111.468 2.46C111.468 2.1 111.648 1.92 112.008 1.92C112.528 1.92 113.048 1.93 113.568 1.95C114.088 1.97 114.598 1.98 115.098 1.98C115.558 1.98 116.018 1.98 116.478 1.98C116.958 1.96 117.428 1.95 117.888 1.95C119.068 3.55 120.308 5.1 121.608 6.6C122.928 8.08 124.188 9.61 125.388 11.19C126.088 12.13 126.798 13.07 127.518 14.01C128.238 14.95 128.968 15.88 129.708 16.8C129.708 14.68 129.708 12.56 129.708 10.44C129.728 8.32 129.738 6.2 129.738 4.08C129.738 3.9 129.708 3.68 129.648 3.42C129.608 3.14 129.458 3 129.198 3H128.388C128.268 3 128.148 3.02 128.028 3.06C127.908 3.08 127.788 3.09 127.668 3.09C127.288 3.09 127.098 2.88 127.098 2.46C127.098 2.22 127.168 2.08 127.308 2.04C127.448 1.98 127.618 1.95 127.818 1.95C128.218 1.95 128.608 1.96 128.988 1.98C129.388 2 129.778 2.01 130.158 2.01C130.678 2.01 131.198 1.99 131.718 1.95C132.258 1.91 132.788 1.89 133.308 1.89C133.468 1.89 133.608 1.95 133.728 2.07C133.848 2.17 133.908 2.3 133.908 2.46ZM144.356 20.82C144.296 19.88 144.256 18.94 144.236 18C144.216 17.04 144.216 16.08 144.236 15.12C143.416 15.26 142.616 15.52 141.836 15.9C141.076 16.26 140.446 16.75 139.946 17.37C139.446 17.99 139.196 18.78 139.196 19.74C139.196 20.14 139.246 20.57 139.346 21.03C139.466 21.49 139.666 21.88 139.946 22.2C140.246 22.5 140.646 22.65 141.146 22.65C141.506 22.65 141.886 22.55 142.286 22.35C142.686 22.13 143.066 21.88 143.426 21.6C143.806 21.32 144.116 21.06 144.356 20.82ZM150.536 22.59C150.536 22.67 150.496 22.76 150.416 22.86C150.356 22.96 150.296 23.04 150.236 23.1C149.616 23.82 148.816 24.18 147.836 24.18C146.976 24.18 146.286 23.99 145.766 23.61C145.246 23.23 144.846 22.64 144.566 21.84C143.926 22.52 143.236 23.06 142.496 23.46C141.776 23.86 140.926 24.06 139.946 24.06C139.246 24.06 138.536 23.91 137.816 23.61C137.116 23.29 136.526 22.84 136.046 22.26C135.586 21.68 135.356 21.01 135.356 20.25C135.356 19.49 135.546 18.82 135.926 18.24C136.326 17.64 136.826 17.13 137.426 16.71C138.026 16.27 138.636 15.91 139.256 15.63C140.056 15.29 140.876 15.03 141.716 14.85C142.556 14.65 143.396 14.45 144.236 14.25V14.13C144.236 13.77 144.226 13.29 144.206 12.69C144.206 12.07 144.146 11.46 144.026 10.86C143.906 10.24 143.706 9.72 143.426 9.3C143.146 8.86 142.736 8.64 142.196 8.64C141.576 8.64 141.016 8.82 140.516 9.18C140.036 9.54 139.696 10.02 139.496 10.62C139.456 10.8 139.426 10.98 139.406 11.16C139.386 11.32 139.356 11.49 139.316 11.67C139.276 11.99 139.086 12.21 138.746 12.33C138.426 12.43 138.126 12.48 137.846 12.48C137.506 12.48 137.176 12.41 136.856 12.27C136.536 12.11 136.376 11.82 136.376 11.4C136.376 11.24 136.396 11.1 136.436 10.98C136.496 10.84 136.556 10.7 136.616 10.56C136.936 9.8 137.416 9.24 138.056 8.88C138.696 8.52 139.396 8.28 140.156 8.16C140.936 8.04 141.676 7.98 142.376 7.98C144.016 7.98 145.366 8.42 146.426 9.3C147.486 10.18 148.016 11.48 148.016 13.2V17.73C147.996 18.29 147.986 18.87 147.986 19.47C148.006 20.05 148.036 20.63 148.076 21.21C148.116 21.55 148.196 21.88 148.316 22.2C148.436 22.5 148.706 22.65 149.126 22.65C149.406 22.65 149.636 22.59 149.816 22.47C150.016 22.35 150.196 22.29 150.356 22.29C150.436 22.29 150.486 22.33 150.506 22.41C150.526 22.49 150.536 22.55 150.536 22.59ZM168.504 23.55C168.504 23.71 168.444 23.82 168.324 23.88C168.224 23.92 168.114 23.95 167.994 23.97C167.514 24.01 167.034 24.03 166.554 24.03C166.074 24.05 165.604 24.06 165.144 24.06C164.884 24.06 164.604 24.05 164.304 24.03C164.024 24.01 163.764 23.96 163.524 23.88C163.264 23.8 163.044 23.65 162.864 23.43C162.684 23.21 162.524 22.98 162.384 22.74C161.644 21.44 160.894 20.15 160.134 18.87C159.374 17.59 158.644 16.29 157.944 14.97L157.194 15.48V22.38C157.194 22.74 157.264 22.97 157.404 23.07C157.564 23.17 157.764 23.21 158.004 23.19C158.264 23.15 158.544 23.13 158.844 23.13C159.124 23.13 159.264 23.29 159.264 23.61C159.264 23.93 159.104 24.09 158.784 24.09C158.204 24.09 157.624 24.07 157.044 24.03C156.484 23.99 155.914 23.97 155.334 23.97C154.754 23.97 154.174 23.99 153.594 24.03C153.014 24.09 152.434 24.12 151.854 24.12C151.734 24.12 151.634 24.07 151.554 23.97C151.494 23.85 151.464 23.73 151.464 23.61C151.464 23.31 151.624 23.16 151.944 23.16C152.144 23.16 152.334 23.17 152.514 23.19C152.694 23.19 152.884 23.19 153.084 23.19C153.324 23.19 153.464 23.11 153.504 22.95C153.544 22.79 153.564 22.61 153.564 22.41C153.584 22.13 153.594 21.85 153.594 21.57C153.614 21.29 153.624 21.02 153.624 20.76V6.21C153.624 5.77 153.614 5.34 153.594 4.92C153.594 4.5 153.584 4.07 153.564 3.63C153.544 3.41 153.504 3.17 153.444 2.91C153.404 2.65 153.234 2.52 152.934 2.52C152.734 2.52 152.534 2.53 152.334 2.55C152.154 2.57 151.964 2.58 151.764 2.58C151.444 2.58 151.284 2.44 151.284 2.16C151.284 1.96 151.394 1.83 151.614 1.77C151.854 1.71 152.104 1.67 152.364 1.65C152.624 1.63 152.874 1.6 153.114 1.56C153.674 1.46 154.224 1.34 154.764 1.2C155.324 1.06 155.884 0.919999 156.444 0.779999C156.504 0.759999 156.554 0.749999 156.594 0.749999C156.654 0.729999 156.714 0.719999 156.774 0.719999C157.074 0.719999 157.224 0.849999 157.224 1.11C157.224 3.35 157.214 5.59 157.194 7.83C157.174 10.05 157.164 12.27 157.164 14.49C157.864 13.95 158.574 13.41 159.294 12.87C160.014 12.31 160.694 11.72 161.334 11.1C161.634 10.8 161.944 10.5 162.264 10.2C162.584 9.88 162.864 9.55 163.104 9.21C163.264 8.99 163.354 8.78 163.374 8.58C163.414 8.36 163.464 8.18 163.524 8.04C163.604 7.9 163.774 7.83 164.034 7.83C164.554 7.83 165.074 7.84 165.594 7.86C166.114 7.86 166.624 7.86 167.124 7.86C167.424 7.86 167.574 7.99 167.574 8.25C167.574 8.47 167.504 8.6 167.364 8.64C167.224 8.68 167.074 8.7 166.914 8.7C166.614 8.7 166.294 8.76 165.954 8.88C165.634 9 165.364 9.14 165.144 9.3C164.384 9.88 163.634 10.49 162.894 11.13C162.174 11.75 161.444 12.38 160.704 13.02C160.904 13.36 161.204 13.88 161.604 14.58C162.024 15.28 162.494 16.06 163.014 16.92C163.534 17.78 164.064 18.62 164.604 19.44C165.144 20.26 165.634 20.98 166.074 21.6C166.534 22.2 166.894 22.6 167.154 22.8C167.334 22.94 167.504 23.03 167.664 23.07C167.824 23.11 168.004 23.16 168.204 23.22C168.404 23.28 168.504 23.39 168.504 23.55ZM178.428 20.82C178.368 19.88 178.328 18.94 178.308 18C178.288 17.04 178.288 16.08 178.308 15.12C177.488 15.26 176.688 15.52 175.908 15.9C175.148 16.26 174.518 16.75 174.018 17.37C173.518 17.99 173.268 18.78 173.268 19.74C173.268 20.14 173.318 20.57 173.418 21.03C173.538 21.49 173.738 21.88 174.018 22.2C174.318 22.5 174.718 22.65 175.218 22.65C175.578 22.65 175.958 22.55 176.358 22.35C176.758 22.13 177.138 21.88 177.498 21.6C177.878 21.32 178.188 21.06 178.428 20.82ZM184.608 22.59C184.608 22.67 184.568 22.76 184.488 22.86C184.428 22.96 184.368 23.04 184.308 23.1C183.688 23.82 182.888 24.18 181.908 24.18C181.048 24.18 180.358 23.99 179.838 23.61C179.318 23.23 178.918 22.64 178.638 21.84C177.998 22.52 177.308 23.06 176.568 23.46C175.848 23.86 174.998 24.06 174.018 24.06C173.318 24.06 172.608 23.91 171.888 23.61C171.188 23.29 170.598 22.84 170.118 22.26C169.658 21.68 169.428 21.01 169.428 20.25C169.428 19.49 169.618 18.82 169.998 18.24C170.398 17.64 170.898 17.13 171.498 16.71C172.098 16.27 172.708 15.91 173.328 15.63C174.128 15.29 174.948 15.03 175.788 14.85C176.628 14.65 177.468 14.45 178.308 14.25V14.13C178.308 13.77 178.298 13.29 178.278 12.69C178.278 12.07 178.218 11.46 178.098 10.86C177.978 10.24 177.778 9.72 177.498 9.3C177.218 8.86 176.808 8.64 176.268 8.64C175.648 8.64 175.088 8.82 174.588 9.18C174.108 9.54 173.768 10.02 173.568 10.62C173.528 10.8 173.498 10.98 173.478 11.16C173.458 11.32 173.428 11.49 173.388 11.67C173.348 11.99 173.158 12.21 172.818 12.33C172.498 12.43 172.198 12.48 171.918 12.48C171.578 12.48 171.248 12.41 170.928 12.27C170.608 12.11 170.448 11.82 170.448 11.4C170.448 11.24 170.468 11.1 170.508 10.98C170.568 10.84 170.628 10.7 170.688 10.56C171.008 9.8 171.488 9.24 172.128 8.88C172.768 8.52 173.468 8.28 174.228 8.16C175.008 8.04 175.748 7.98 176.448 7.98C178.088 7.98 179.438 8.42 180.498 9.3C181.558 10.18 182.088 11.48 182.088 13.2V17.73C182.068 18.29 182.058 18.87 182.058 19.47C182.078 20.05 182.108 20.63 182.148 21.21C182.188 21.55 182.268 21.88 182.388 22.2C182.508 22.5 182.778 22.65 183.198 22.65C183.478 22.65 183.708 22.59 183.888 22.47C184.088 22.35 184.268 22.29 184.428 22.29C184.508 22.29 184.558 22.33 184.578 22.41C184.598 22.49 184.608 22.55 184.608 22.59ZM192.947 22.2C192.947 22.9 192.917 23.62 192.857 24.36C192.797 25.12 192.597 25.83 192.257 26.49C191.757 27.49 191.007 28.25 190.007 28.77C189.007 29.29 187.957 29.55 186.857 29.55C186.237 29.55 185.587 29.46 184.907 29.28C184.247 29.12 183.697 28.79 183.257 28.29C183.117 28.13 182.997 27.96 182.897 27.78C182.777 27.6 182.717 27.41 182.717 27.21C182.717 26.69 182.947 26.26 183.407 25.92C183.867 25.6 184.337 25.44 184.817 25.44C185.097 25.44 185.257 25.53 185.297 25.71C185.357 25.89 185.397 26.09 185.417 26.31C185.457 26.59 185.517 26.89 185.597 27.21C185.697 27.55 185.847 27.83 186.047 28.05C186.267 28.29 186.557 28.41 186.917 28.41C187.477 28.41 187.897 28.23 188.177 27.87C188.477 27.53 188.677 27.11 188.777 26.61C188.897 26.13 188.957 25.67 188.957 25.23C188.957 22.79 188.947 20.35 188.927 17.91C188.927 15.45 188.927 13 188.927 10.56C188.927 10.36 188.907 10.13 188.867 9.87C188.827 9.61 188.667 9.48 188.387 9.48C188.127 9.48 187.857 9.5 187.577 9.54C187.297 9.58 187.017 9.6 186.737 9.6C186.617 9.6 186.497 9.57 186.377 9.51C186.277 9.45 186.227 9.35 186.227 9.21C186.227 8.97 186.357 8.81 186.617 8.73C186.857 8.65 187.117 8.6 187.397 8.58C187.697 8.56 187.977 8.53 188.237 8.49C188.897 8.39 189.557 8.28 190.217 8.16C190.877 8.02 191.537 7.87 192.197 7.71C192.317 7.67 192.427 7.65 192.527 7.65C192.807 7.65 192.947 7.78 192.947 8.04V22.2ZM193.007 3.03C193.007 3.65 192.777 4.19 192.317 4.65C191.877 5.11 191.337 5.34 190.697 5.34C190.077 5.34 189.537 5.11 189.077 4.65C188.617 4.19 188.387 3.65 188.387 3.03C188.387 2.39 188.617 1.85 189.077 1.41C189.537 0.949999 190.077 0.719999 190.697 0.719999C191.337 0.719999 191.877 0.949999 192.317 1.41C192.777 1.85 193.007 2.39 193.007 3.03ZM205.543 23.64C205.543 23.96 205.383 24.12 205.063 24.12C204.483 24.12 203.893 24.09 203.293 24.03C202.693 23.99 202.093 23.97 201.493 23.97C200.893 23.97 200.283 23.99 199.663 24.03C199.063 24.09 198.463 24.12 197.863 24.12C197.723 24.12 197.623 24.07 197.563 23.97C197.503 23.85 197.473 23.74 197.473 23.64C197.473 23.32 197.623 23.16 197.923 23.16C198.123 23.16 198.313 23.17 198.493 23.19C198.673 23.21 198.853 23.22 199.033 23.22C199.273 23.22 199.423 23.14 199.483 22.98C199.563 22.82 199.603 22.64 199.603 22.44V10.53C199.603 10.33 199.583 10.11 199.543 9.87C199.503 9.61 199.343 9.48 199.063 9.48C198.803 9.48 198.533 9.5 198.253 9.54C197.973 9.58 197.693 9.6 197.413 9.6C197.293 9.6 197.173 9.57 197.053 9.51C196.953 9.45 196.903 9.35 196.903 9.21C196.903 8.95 197.033 8.78 197.293 8.7C197.513 8.66 197.743 8.63 197.983 8.61C198.243 8.57 198.483 8.54 198.703 8.52C199.403 8.42 200.083 8.3 200.743 8.16C201.423 8 202.103 7.84 202.783 7.68C202.843 7.68 202.903 7.68 202.963 7.68C203.023 7.66 203.073 7.65 203.113 7.65C203.413 7.65 203.563 7.77 203.563 8.01C203.563 10.41 203.553 12.82 203.533 15.24C203.513 17.64 203.503 20.04 203.503 22.44C203.503 22.8 203.583 23.03 203.743 23.13C203.903 23.21 204.103 23.24 204.343 23.22C204.603 23.2 204.863 23.19 205.123 23.19C205.403 23.19 205.543 23.34 205.543 23.64ZM203.653 3.03C203.653 3.65 203.423 4.19 202.963 4.65C202.523 5.11 201.983 5.34 201.343 5.34C200.723 5.34 200.183 5.11 199.723 4.65C199.263 4.19 199.033 3.65 199.033 3.03C199.033 2.39 199.263 1.85 199.723 1.41C200.183 0.949999 200.723 0.719999 201.343 0.719999C201.983 0.719999 202.523 0.949999 202.963 1.41C203.423 1.85 203.653 2.39 203.653 3.03ZM233.586 23.64C233.586 23.96 233.416 24.12 233.076 24.12C232.496 24.12 231.916 24.09 231.336 24.03C230.756 23.99 230.176 23.97 229.596 23.97C229.016 23.97 228.426 23.99 227.826 24.03C227.246 24.09 226.656 24.12 226.056 24.12C225.936 24.12 225.836 24.07 225.756 23.97C225.696 23.85 225.666 23.74 225.666 23.64C225.666 23.34 225.846 23.19 226.206 23.19C226.366 23.19 226.526 23.2 226.686 23.22C226.866 23.22 227.036 23.22 227.196 23.22C227.436 23.22 227.576 23.15 227.616 23.01C227.656 22.85 227.676 22.67 227.676 22.47V13.56C227.676 13.02 227.656 12.43 227.616 11.79C227.596 11.13 227.476 10.55 227.256 10.05C227.076 9.61 226.846 9.31 226.566 9.15C226.306 8.97 225.946 8.88 225.486 8.88C224.926 8.88 224.366 9.1 223.806 9.54C223.246 9.98 222.796 10.4 222.456 10.8C222.536 11.2 222.576 11.61 222.576 12.03C222.596 12.43 222.606 12.83 222.606 13.23C222.606 14.77 222.606 16.31 222.606 17.85C222.606 19.39 222.606 20.93 222.606 22.47C222.606 22.71 222.646 22.9 222.726 23.04C222.826 23.18 223.006 23.25 223.266 23.25C223.406 23.25 223.536 23.24 223.656 23.22C223.796 23.2 223.936 23.19 224.076 23.19C224.376 23.19 224.526 23.34 224.526 23.64C224.526 23.96 224.356 24.12 224.016 24.12C223.456 24.12 222.886 24.09 222.306 24.03C221.746 23.99 221.176 23.97 220.596 23.97C220.016 23.97 219.436 23.99 218.856 24.03C218.276 24.09 217.696 24.12 217.116 24.12C216.976 24.12 216.876 24.07 216.816 23.97C216.756 23.85 216.726 23.74 216.726 23.64C216.726 23.42 216.816 23.29 216.996 23.25C217.176 23.19 217.376 23.17 217.596 23.19C217.836 23.21 218.016 23.22 218.136 23.22C218.416 23.22 218.586 23.16 218.646 23.04C218.706 22.9 218.736 22.71 218.736 22.47C218.736 20.99 218.726 19.51 218.706 18.03C218.706 16.53 218.706 15.04 218.706 13.56C218.706 13.02 218.686 12.43 218.646 11.79C218.626 11.13 218.506 10.55 218.286 10.05C218.086 9.59 217.846 9.29 217.566 9.15C217.286 9.01 216.906 8.94 216.426 8.94C216.166 8.94 215.846 9.07 215.466 9.33C215.086 9.57 214.726 9.85 214.386 10.17C214.046 10.49 213.786 10.75 213.606 10.95C213.606 12.87 213.606 14.79 213.606 16.71C213.606 18.63 213.606 20.55 213.606 22.47C213.606 22.71 213.646 22.9 213.726 23.04C213.826 23.18 214.006 23.25 214.266 23.25C214.406 23.25 214.546 23.24 214.686 23.22C214.826 23.2 214.966 23.19 215.106 23.19C215.386 23.19 215.526 23.34 215.526 23.64C215.526 23.96 215.366 24.12 215.046 24.12C214.466 24.12 213.886 24.1 213.306 24.06C212.746 24.02 212.176 24 211.596 24C210.996 24 210.396 24.02 209.796 24.06C209.216 24.1 208.626 24.12 208.026 24.12C207.886 24.12 207.776 24.07 207.696 23.97C207.636 23.85 207.606 23.74 207.606 23.64C207.606 23.34 207.776 23.19 208.116 23.19C208.276 23.19 208.436 23.2 208.596 23.22C208.776 23.22 208.956 23.22 209.136 23.22C209.416 23.22 209.576 23.08 209.616 22.8C209.676 22.52 209.706 22.28 209.706 22.08C209.706 20.18 209.706 18.28 209.706 16.38C209.706 14.48 209.706 12.58 209.706 10.68C209.706 10.46 209.676 10.22 209.616 9.96C209.556 9.7 209.366 9.57 209.046 9.57C208.826 9.57 208.596 9.59 208.356 9.63C208.136 9.65 207.916 9.66 207.696 9.66C207.576 9.66 207.456 9.63 207.336 9.57C207.236 9.49 207.186 9.38 207.186 9.24C207.186 9.1 207.226 9 207.306 8.94C207.406 8.88 207.496 8.84 207.576 8.82C207.836 8.74 208.106 8.69 208.386 8.67C208.666 8.65 208.936 8.62 209.196 8.58C209.436 8.52 209.776 8.43 210.216 8.31C210.676 8.19 211.126 8.08 211.566 7.98C212.006 7.86 212.306 7.8 212.466 7.8C212.706 7.8 212.876 7.91 212.976 8.13C213.116 8.35 213.216 8.61 213.276 8.91C213.336 9.19 213.406 9.46 213.486 9.72C214.206 9.12 214.926 8.67 215.646 8.37C216.366 8.05 217.196 7.89 218.136 7.89C218.896 7.89 219.636 8.04 220.356 8.34C221.096 8.64 221.656 9.13 222.036 9.81C222.736 9.19 223.466 8.7 224.226 8.34C224.986 7.98 225.826 7.8 226.746 7.8C228.126 7.8 229.156 7.99 229.836 8.37C230.516 8.75 230.966 9.34 231.186 10.14C231.426 10.92 231.546 11.95 231.546 13.23C231.546 14.77 231.546 16.31 231.546 17.85C231.546 19.39 231.546 20.93 231.546 22.47C231.546 22.79 231.626 23 231.786 23.1C231.966 23.2 232.176 23.24 232.416 23.22C232.676 23.2 232.916 23.19 233.136 23.19C233.436 23.19 233.586 23.34 233.586 23.64ZM244.053 20.82C243.993 19.88 243.953 18.94 243.933 18C243.913 17.04 243.913 16.08 243.933 15.12C243.113 15.26 242.313 15.52 241.533 15.9C240.773 16.26 240.143 16.75 239.643 17.37C239.143 17.99 238.893 18.78 238.893 19.74C238.893 20.14 238.943 20.57 239.043 21.03C239.163 21.49 239.363 21.88 239.643 22.2C239.943 22.5 240.343 22.65 240.843 22.65C241.203 22.65 241.583 22.55 241.983 22.35C242.383 22.13 242.763 21.88 243.123 21.6C243.503 21.32 243.813 21.06 244.053 20.82ZM250.233 22.59C250.233 22.67 250.193 22.76 250.113 22.86C250.053 22.96 249.993 23.04 249.933 23.1C249.313 23.82 248.513 24.18 247.533 24.18C246.673 24.18 245.983 23.99 245.463 23.61C244.943 23.23 244.543 22.64 244.263 21.84C243.623 22.52 242.933 23.06 242.193 23.46C241.473 23.86 240.623 24.06 239.643 24.06C238.943 24.06 238.233 23.91 237.513 23.61C236.813 23.29 236.223 22.84 235.743 22.26C235.283 21.68 235.053 21.01 235.053 20.25C235.053 19.49 235.243 18.82 235.623 18.24C236.023 17.64 236.523 17.13 237.123 16.71C237.723 16.27 238.333 15.91 238.953 15.63C239.753 15.29 240.573 15.03 241.413 14.85C242.253 14.65 243.093 14.45 243.933 14.25V14.13C243.933 13.77 243.923 13.29 243.903 12.69C243.903 12.07 243.843 11.46 243.723 10.86C243.603 10.24 243.403 9.72 243.123 9.3C242.843 8.86 242.433 8.64 241.893 8.64C241.273 8.64 240.713 8.82 240.213 9.18C239.733 9.54 239.393 10.02 239.193 10.62C239.153 10.8 239.123 10.98 239.103 11.16C239.083 11.32 239.053 11.49 239.013 11.67C238.973 11.99 238.783 12.21 238.443 12.33C238.123 12.43 237.823 12.48 237.543 12.48C237.203 12.48 236.873 12.41 236.553 12.27C236.233 12.11 236.073 11.82 236.073 11.4C236.073 11.24 236.093 11.1 236.133 10.98C236.193 10.84 236.253 10.7 236.313 10.56C236.633 9.8 237.113 9.24 237.753 8.88C238.393 8.52 239.093 8.28 239.853 8.16C240.633 8.04 241.373 7.98 242.073 7.98C243.713 7.98 245.063 8.42 246.123 9.3C247.183 10.18 247.713 11.48 247.713 13.2V17.73C247.693 18.29 247.683 18.87 247.683 19.47C247.703 20.05 247.733 20.63 247.773 21.21C247.813 21.55 247.893 21.88 248.013 22.2C248.133 22.5 248.403 22.65 248.823 22.65C249.103 22.65 249.333 22.59 249.513 22.47C249.713 22.35 249.893 22.29 250.053 22.29C250.133 22.29 250.183 22.33 250.203 22.41C250.223 22.49 250.233 22.55 250.233 22.59Z" fill="#515151"/>
<path d="M106.983 20.72C106.983 21.5467 106.69 22.2667 106.103 22.88C105.517 23.4933 104.797 23.8 103.943 23.8C103.117 23.8 102.397 23.4933 101.783 22.88C101.197 22.2667 100.903 21.5467 100.903 20.72C100.903 19.8667 101.197 19.1467 101.783 18.56C102.397 17.9467 103.117 17.64 103.943 17.64C104.797 17.64 105.517 17.9467 106.103 18.56C106.69 19.1467 106.983 19.8667 106.983 20.72Z" fill="#FFC700"/>
</svg>
