<svg width="72" height="40" viewBox="0 0 72 40" fill="none" xmlns="http://www.w3.org/2000/svg">
<path d="M16.989 10.4286H30.5688V11.4222H18.2338V18.9002H29.8333V19.8937H18.2338V28.1038H30.7103V29.0974H16.989V10.4286ZM31.7854 10.4286H33.2282L39.6221 18.6387L46.1574 10.4286L55.0465 0L40.4425 19.5015L47.968 29.0974H46.4686L39.6221 20.3644L32.7473 29.0974H31.2761L38.8582 19.5015L31.7854 10.4286ZM48.5056 11.4222V10.4286H63.9809V11.4222H56.8515V29.0974H55.6067V11.4222H48.5056ZM0 10.4286H1.55603L23.0127 39.985L14.1457 29.0974L1.3014 11.8406L1.24482 29.0974H0V10.4286ZM63.8555 27.8039C63.6012 27.8039 63.4104 27.6225 63.4104 27.3881C63.4104 27.1537 63.6012 26.9723 63.8555 26.9723C64.1129 26.9723 64.3006 27.1537 64.3006 27.3881C64.3006 27.6225 64.1129 27.8039 63.8555 27.8039ZM65.0787 26.71H65.7448C65.7539 27.0421 66.0173 27.2653 66.4048 27.2653C66.8378 27.2653 67.083 27.0253 67.083 26.576V23.7295H67.7612V26.5788C67.7612 27.3881 67.2526 27.8542 66.4109 27.8542C65.6207 27.8542 65.0787 27.4021 65.0787 26.71ZM68.6484 26.6737H69.3205C69.378 27.056 69.7837 27.2988 70.3681 27.2988C70.9131 27.2988 71.3127 27.0393 71.3127 26.6821C71.3127 26.3751 71.0584 26.1909 70.4801 26.0653L69.9169 25.9397C69.1267 25.7695 68.7664 25.4179 68.7664 24.8263C68.7664 24.109 69.4022 23.6318 70.356 23.6318C71.2431 23.6318 71.891 24.109 71.9304 24.7872H71.2703C71.2067 24.416 70.8555 24.1844 70.3469 24.1844C69.811 24.1844 69.4537 24.4216 69.4537 24.7844C69.4537 25.0718 69.6838 25.2365 70.253 25.3593L70.7344 25.4681C71.6306 25.6607 72 25.9956 72 26.6011C72 27.3714 71.3521 27.8542 70.3166 27.8542C69.3477 27.8542 68.6968 27.3937 68.6484 26.6737Z" fill="#A5A5A5"/>
</svg>
