<svg width="122" height="216" viewBox="0 0 122 216" fill="none" xmlns="http://www.w3.org/2000/svg">
<path d="M2.82244 5.19886C4.05291 5.19886 5.05966 4.19212 5.05966 2.96165C5.05966 1.73118 4.05291 0.724432 2.82244 0.724432C1.59197 0.724432 0.585227 1.73118 0.585227 2.96165C0.585227 4.19212 1.59197 5.19886 2.82244 5.19886ZM22.3049 5.19886C23.5353 5.19886 24.5421 4.19212 24.5421 2.96165C24.5421 1.73118 23.5353 0.724432 22.3049 0.724432C21.0744 0.724432 20.0676 1.73118 20.0676 2.96165C20.0676 4.19212 21.0744 5.19886 22.3049 5.19886ZM61.2697 5.19886C62.5002 5.19886 63.5069 4.19212 63.5069 2.96165C63.5069 1.73118 62.5002 0.724432 61.2697 0.724432C60.0392 0.724432 59.0325 1.73118 59.0325 2.96165C59.0325 4.19212 60.0392 5.19886 61.2697 5.19886ZM80.7521 5.19886C81.9826 5.19886 82.9893 4.19212 82.9893 2.96165C82.9893 1.73118 81.9826 0.724432 80.7521 0.724432C79.5217 0.724432 78.5149 1.73118 78.5149 2.96165C78.5149 4.19212 79.5217 5.19886 80.7521 5.19886ZM100.235 5.19886C101.465 5.19886 102.472 4.19212 102.472 2.96165C102.472 1.73118 101.465 0.724432 100.235 0.724432C99.0041 0.724432 97.9973 1.73118 97.9973 2.96165C97.9973 4.19212 99.0041 5.19886 100.235 5.19886ZM2.82244 47.1989C4.05291 47.1989 5.05966 46.1921 5.05966 44.9616C5.05966 43.7312 4.05291 42.7244 2.82244 42.7244C1.59197 42.7244 0.585227 43.7312 0.585227 44.9616C0.585227 46.1921 1.59197 47.1989 2.82244 47.1989ZM22.3049 47.1989C23.5353 47.1989 24.5421 46.1921 24.5421 44.9616C24.5421 43.7312 23.5353 42.7244 22.3049 42.7244C21.0744 42.7244 20.0676 43.7312 20.0676 44.9616C20.0676 46.1921 21.0744 47.1989 22.3049 47.1989ZM41.7873 47.1989C43.0178 47.1989 44.0245 46.1921 44.0245 44.9616C44.0245 43.7312 43.0178 42.7244 41.7873 42.7244C40.5568 42.7244 39.5501 43.7312 39.5501 44.9616C39.5501 46.1921 40.5568 47.1989 41.7873 47.1989ZM61.2697 47.1989C62.5002 47.1989 63.5069 46.1921 63.5069 44.9616C63.5069 43.7312 62.5002 42.7244 61.2697 42.7244C60.0392 42.7244 59.0325 43.7312 59.0325 44.9616C59.0325 46.1921 60.0392 47.1989 61.2697 47.1989ZM100.235 47.1989C101.465 47.1989 102.472 46.1921 102.472 44.9616C102.472 43.7312 101.465 42.7244 100.235 42.7244C99.0041 42.7244 97.9973 43.7312 97.9973 44.9616C97.9973 46.1921 99.0041 47.1989 100.235 47.1989ZM119.717 47.1989C120.947 47.1989 121.954 46.1921 121.954 44.9616C121.954 43.7312 120.947 42.7244 119.717 42.7244C118.487 42.7244 117.48 43.7312 117.48 44.9616C117.48 46.1921 118.487 47.1989 119.717 47.1989ZM2.82244 89.1989C4.05291 89.1989 5.05966 88.1921 5.05966 86.9616C5.05966 85.7312 4.05291 84.7244 2.82244 84.7244C1.59197 84.7244 0.585227 85.7312 0.585227 86.9616C0.585227 88.1921 1.59197 89.1989 2.82244 89.1989ZM41.7873 89.1989C43.0178 89.1989 44.0245 88.1921 44.0245 86.9616C44.0245 85.7312 43.0178 84.7244 41.7873 84.7244C40.5568 84.7244 39.5501 85.7312 39.5501 86.9616C39.5501 88.1921 40.5568 89.1989 41.7873 89.1989ZM61.2697 89.1989C62.5002 89.1989 63.5069 88.1921 63.5069 86.9616C63.5069 85.7312 62.5002 84.7244 61.2697 84.7244C60.0392 84.7244 59.0325 85.7312 59.0325 86.9616C59.0325 88.1921 60.0392 89.1989 61.2697 89.1989ZM80.7521 89.1989C81.9826 89.1989 82.9893 88.1921 82.9893 86.9616C82.9893 85.7312 81.9826 84.7244 80.7521 84.7244C79.5217 84.7244 78.5149 85.7312 78.5149 86.9616C78.5149 88.1921 79.5217 89.1989 80.7521 89.1989ZM100.235 89.1989C101.465 89.1989 102.472 88.1921 102.472 86.9616C102.472 85.7312 101.465 84.7244 100.235 84.7244C99.0041 84.7244 97.9973 85.7312 97.9973 86.9616C97.9973 88.1921 99.0041 89.1989 100.235 89.1989ZM119.717 89.1989C120.947 89.1989 121.954 88.1921 121.954 86.9616C121.954 85.7312 120.947 84.7244 119.717 84.7244C118.487 84.7244 117.48 85.7312 117.48 86.9616C117.48 88.1921 118.487 89.1989 119.717 89.1989ZM2.82244 131.199C4.05291 131.199 5.05966 130.192 5.05966 128.962C5.05966 127.731 4.05291 126.724 2.82244 126.724C1.59197 126.724 0.585227 127.731 0.585227 128.962C0.585227 130.192 1.59197 131.199 2.82244 131.199ZM22.3049 131.199C23.5353 131.199 24.5421 130.192 24.5421 128.962C24.5421 127.731 23.5353 126.724 22.3049 126.724C21.0744 126.724 20.0676 127.731 20.0676 128.962C20.0676 130.192 21.0744 131.199 22.3049 131.199ZM41.7873 131.199C43.0178 131.199 44.0245 130.192 44.0245 128.962C44.0245 127.731 43.0178 126.724 41.7873 126.724C40.5568 126.724 39.5501 127.731 39.5501 128.962C39.5501 130.192 40.5568 131.199 41.7873 131.199ZM61.2697 131.199C62.5002 131.199 63.5069 130.192 63.5069 128.962C63.5069 127.731 62.5002 126.724 61.2697 126.724C60.0392 126.724 59.0325 127.731 59.0325 128.962C59.0325 130.192 60.0392 131.199 61.2697 131.199ZM80.7521 131.199C81.9826 131.199 82.9893 130.192 82.9893 128.962C82.9893 127.731 81.9826 126.724 80.7521 126.724C79.5217 126.724 78.5149 127.731 78.5149 128.962C78.5149 130.192 79.5217 131.199 80.7521 131.199ZM119.717 131.199C120.947 131.199 121.954 130.192 121.954 128.962C121.954 127.731 120.947 126.724 119.717 126.724C118.487 126.724 117.48 127.731 117.48 128.962C117.48 130.192 118.487 131.199 119.717 131.199ZM2.82244 173.199C4.05291 173.199 5.05966 172.192 5.05966 170.962C5.05966 169.731 4.05291 168.724 2.82244 168.724C1.59197 168.724 0.585227 169.731 0.585227 170.962C0.585227 172.192 1.59197 173.199 2.82244 173.199ZM22.3049 173.199C23.5353 173.199 24.5421 172.192 24.5421 170.962C24.5421 169.731 23.5353 168.724 22.3049 168.724C21.0744 168.724 20.0676 169.731 20.0676 170.962C20.0676 172.192 21.0744 173.199 22.3049 173.199ZM61.2697 173.199C62.5002 173.199 63.5069 172.192 63.5069 170.962C63.5069 169.731 62.5002 168.724 61.2697 168.724C60.0392 168.724 59.0325 169.731 59.0325 170.962C59.0325 172.192 60.0392 173.199 61.2697 173.199ZM80.7521 173.199C81.9826 173.199 82.9893 172.192 82.9893 170.962C82.9893 169.731 81.9826 168.724 80.7521 168.724C79.5217 168.724 78.5149 169.731 78.5149 170.962C78.5149 172.192 79.5217 173.199 80.7521 173.199ZM100.235 173.199C101.465 173.199 102.472 172.192 102.472 170.962C102.472 169.731 101.465 168.724 100.235 168.724C99.0041 168.724 97.9973 169.731 97.9973 170.962C97.9973 172.192 99.0041 173.199 100.235 173.199ZM119.717 173.199C120.947 173.199 121.954 172.192 121.954 170.962C121.954 169.731 120.947 168.724 119.717 168.724C118.487 168.724 117.48 169.731 117.48 170.962C117.48 172.192 118.487 173.199 119.717 173.199ZM2.82244 215.199C4.05291 215.199 5.05966 214.192 5.05966 212.962C5.05966 211.731 4.05291 210.724 2.82244 210.724C1.59197 210.724 0.585227 211.731 0.585227 212.962C0.585227 214.192 1.59197 215.199 2.82244 215.199ZM22.3049 215.199C23.5353 215.199 24.5421 214.192 24.5421 212.962C24.5421 211.731 23.5353 210.724 22.3049 210.724C21.0744 210.724 20.0676 211.731 20.0676 212.962C20.0676 214.192 21.0744 215.199 22.3049 215.199ZM41.7873 215.199C43.0178 215.199 44.0245 214.192 44.0245 212.962C44.0245 211.731 43.0178 210.724 41.7873 210.724C40.5568 210.724 39.5501 211.731 39.5501 212.962C39.5501 214.192 40.5568 215.199 41.7873 215.199ZM80.7521 215.199C81.9826 215.199 82.9893 214.192 82.9893 212.962C82.9893 211.731 81.9826 210.724 80.7521 210.724C79.5217 210.724 78.5149 211.731 78.5149 212.962C78.5149 214.192 79.5217 215.199 80.7521 215.199ZM100.235 215.199C101.465 215.199 102.472 214.192 102.472 212.962C102.472 211.731 101.465 210.724 100.235 210.724C99.0041 210.724 97.9973 211.731 97.9973 212.962C97.9973 214.192 99.0041 215.199 100.235 215.199Z" fill="#BBBBBB"/>
<path d="M41.7873 5.19886C43.0178 5.19886 44.0245 4.19212 44.0245 2.96165C44.0245 1.73118 43.0178 0.724432 41.7873 0.724432C40.5568 0.724432 39.5501 1.73118 39.5501 2.96165C39.5501 4.19212 40.5568 5.19886 41.7873 5.19886ZM119.717 5.19886C120.947 5.19886 121.954 4.19212 121.954 2.96165C121.954 1.73118 120.947 0.724432 119.717 0.724432C118.487 0.724432 117.48 1.73118 117.48 2.96165C117.48 4.19212 118.487 5.19886 119.717 5.19886ZM80.7521 47.1989C81.9826 47.1989 82.9893 46.1921 82.9893 44.9616C82.9893 43.7312 81.9826 42.7244 80.7521 42.7244C79.5217 42.7244 78.5149 43.7312 78.5149 44.9616C78.5149 46.1921 79.5217 47.1989 80.7521 47.1989ZM22.3049 89.1989C23.5353 89.1989 24.5421 88.1921 24.5421 86.9616C24.5421 85.7312 23.5353 84.7244 22.3049 84.7244C21.0744 84.7244 20.0676 85.7312 20.0676 86.9616C20.0676 88.1921 21.0744 89.1989 22.3049 89.1989ZM100.235 131.199C101.465 131.199 102.472 130.192 102.472 128.962C102.472 127.731 101.465 126.724 100.235 126.724C99.0041 126.724 97.9973 127.731 97.9973 128.962C97.9973 130.192 99.0041 131.199 100.235 131.199ZM41.7873 173.199C43.0178 173.199 44.0245 172.192 44.0245 170.962C44.0245 169.731 43.0178 168.724 41.7873 168.724C40.5568 168.724 39.5501 169.731 39.5501 170.962C39.5501 172.192 40.5568 173.199 41.7873 173.199ZM61.2697 215.199C62.5002 215.199 63.5069 214.192 63.5069 212.962C63.5069 211.731 62.5002 210.724 61.2697 210.724C60.0392 210.724 59.0325 211.731 59.0325 212.962C59.0325 214.192 60.0392 215.199 61.2697 215.199ZM119.717 215.199C120.947 215.199 121.954 214.192 121.954 212.962C121.954 211.731 120.947 210.724 119.717 210.724C118.487 210.724 117.48 211.731 117.48 212.962C117.48 214.192 118.487 215.199 119.717 215.199Z" fill="#FFC700"/>
</svg>
