<svg width="142" height="255" viewBox="0 0 142 255" fill="none" xmlns="http://www.w3.org/2000/svg">
<path d="M4.82244 34.1989C6.05291 34.1989 7.05966 33.1921 7.05966 31.9616C7.05966 30.7312 6.05291 29.7244 4.82244 29.7244C3.59197 29.7244 2.58523 30.7312 2.58523 31.9616C2.58523 33.1921 3.59197 34.1989 4.82244 34.1989ZM121.717 34.1989C122.947 34.1989 123.954 33.1921 123.954 31.9616C123.954 30.7312 122.947 29.7244 121.717 29.7244C120.487 29.7244 119.48 30.7312 119.48 31.9616C119.48 33.1921 120.487 34.1989 121.717 34.1989ZM43.7873 76.1989C45.0178 76.1989 46.0245 75.1921 46.0245 73.9616C46.0245 72.7312 45.0178 71.7244 43.7873 71.7244C42.5568 71.7244 41.5501 72.7312 41.5501 73.9616C41.5501 75.1921 42.5568 76.1989 43.7873 76.1989ZM102.235 76.1989C103.465 76.1989 104.472 75.1921 104.472 73.9616C104.472 72.7312 103.465 71.7244 102.235 71.7244C101.004 71.7244 99.9973 72.7312 99.9973 73.9616C99.9973 75.1921 101.004 76.1989 102.235 76.1989ZM4.82244 118.199C6.05291 118.199 7.05966 117.192 7.05966 115.962C7.05966 114.731 6.05291 113.724 4.82244 113.724C3.59197 113.724 2.58523 114.731 2.58523 115.962C2.58523 117.192 3.59197 118.199 4.82244 118.199ZM63.2697 118.199C64.5002 118.199 65.5069 117.192 65.5069 115.962C65.5069 114.731 64.5002 113.724 63.2697 113.724C62.0392 113.724 61.0325 114.731 61.0325 115.962C61.0325 117.192 62.0392 118.199 63.2697 118.199ZM121.717 118.199C122.947 118.199 123.954 117.192 123.954 115.962C123.954 114.731 122.947 113.724 121.717 113.724C120.487 113.724 119.48 114.731 119.48 115.962C119.48 117.192 120.487 118.199 121.717 118.199ZM102.235 160.199C103.465 160.199 104.472 159.192 104.472 157.962C104.472 156.731 103.465 155.724 102.235 155.724C101.004 155.724 99.9973 156.731 99.9973 157.962C99.9973 159.192 101.004 160.199 102.235 160.199ZM63.2697 202.199C64.5002 202.199 65.5069 201.192 65.5069 199.962C65.5069 198.731 64.5002 197.724 63.2697 197.724C62.0392 197.724 61.0325 198.731 61.0325 199.962C61.0325 201.192 62.0392 202.199 63.2697 202.199ZM43.7873 244.199C45.0178 244.199 46.0245 243.192 46.0245 241.962C46.0245 240.731 45.0178 239.724 43.7873 239.724C42.5568 239.724 41.5501 240.731 41.5501 241.962C41.5501 243.192 42.5568 244.199 43.7873 244.199ZM102.235 244.199C103.465 244.199 104.472 243.192 104.472 241.962C104.472 240.731 103.465 239.724 102.235 239.724C101.004 239.724 99.9973 240.731 99.9973 241.962C99.9973 243.192 101.004 244.199 102.235 244.199Z" fill="#FFC700"/>
<path d="M24.3049 34.1989C25.5353 34.1989 26.5421 33.1921 26.5421 31.9616C26.5421 30.7312 25.5353 29.7244 24.3049 29.7244C23.0744 29.7244 22.0676 30.7312 22.0676 31.9616C22.0676 33.1921 23.0744 34.1989 24.3049 34.1989ZM63.2697 34.1989C64.5002 34.1989 65.5069 33.1921 65.5069 31.9616C65.5069 30.7312 64.5002 29.7244 63.2697 29.7244C62.0392 29.7244 61.0325 30.7312 61.0325 31.9616C61.0325 33.1921 62.0392 34.1989 63.2697 34.1989ZM82.7521 34.1989C83.9826 34.1989 84.9893 33.1921 84.9893 31.9616C84.9893 30.7312 83.9826 29.7244 82.7521 29.7244C81.5217 29.7244 80.5149 30.7312 80.5149 31.9616C80.5149 33.1921 81.5217 34.1989 82.7521 34.1989ZM102.235 34.1989C103.465 34.1989 104.472 33.1921 104.472 31.9616C104.472 30.7312 103.465 29.7244 102.235 29.7244C101.004 29.7244 99.9973 30.7312 99.9973 31.9616C99.9973 33.1921 101.004 34.1989 102.235 34.1989ZM4.82244 76.1989C6.05291 76.1989 7.05966 75.1921 7.05966 73.9616C7.05966 72.7312 6.05291 71.7244 4.82244 71.7244C3.59197 71.7244 2.58523 72.7312 2.58523 73.9616C2.58523 75.1921 3.59197 76.1989 4.82244 76.1989ZM24.3049 76.1989C25.5353 76.1989 26.5421 75.1921 26.5421 73.9616C26.5421 72.7312 25.5353 71.7244 24.3049 71.7244C23.0744 71.7244 22.0676 72.7312 22.0676 73.9616C22.0676 75.1921 23.0744 76.1989 24.3049 76.1989ZM63.2697 76.1989C64.5002 76.1989 65.5069 75.1921 65.5069 73.9616C65.5069 72.7312 64.5002 71.7244 63.2697 71.7244C62.0392 71.7244 61.0325 72.7312 61.0325 73.9616C61.0325 75.1921 62.0392 76.1989 63.2697 76.1989ZM121.717 76.1989C122.947 76.1989 123.954 75.1921 123.954 73.9616C123.954 72.7312 122.947 71.7244 121.717 71.7244C120.487 71.7244 119.48 72.7312 119.48 73.9616C119.48 75.1921 120.487 76.1989 121.717 76.1989ZM43.7873 118.199C45.0178 118.199 46.0245 117.192 46.0245 115.962C46.0245 114.731 45.0178 113.724 43.7873 113.724C42.5568 113.724 41.5501 114.731 41.5501 115.962C41.5501 117.192 42.5568 118.199 43.7873 118.199ZM82.7521 118.199C83.9826 118.199 84.9893 117.192 84.9893 115.962C84.9893 114.731 83.9826 113.724 82.7521 113.724C81.5217 113.724 80.5149 114.731 80.5149 115.962C80.5149 117.192 81.5217 118.199 82.7521 118.199ZM102.235 118.199C103.465 118.199 104.472 117.192 104.472 115.962C104.472 114.731 103.465 113.724 102.235 113.724C101.004 113.724 99.9973 114.731 99.9973 115.962C99.9973 117.192 101.004 118.199 102.235 118.199ZM4.82244 160.199C6.05291 160.199 7.05966 159.192 7.05966 157.962C7.05966 156.731 6.05291 155.724 4.82244 155.724C3.59197 155.724 2.58523 156.731 2.58523 157.962C2.58523 159.192 3.59197 160.199 4.82244 160.199ZM24.3049 160.199C25.5353 160.199 26.5421 159.192 26.5421 157.962C26.5421 156.731 25.5353 155.724 24.3049 155.724C23.0744 155.724 22.0676 156.731 22.0676 157.962C22.0676 159.192 23.0744 160.199 24.3049 160.199ZM43.7873 160.199C45.0178 160.199 46.0245 159.192 46.0245 157.962C46.0245 156.731 45.0178 155.724 43.7873 155.724C42.5568 155.724 41.5501 156.731 41.5501 157.962C41.5501 159.192 42.5568 160.199 43.7873 160.199ZM63.2697 160.199C64.5002 160.199 65.5069 159.192 65.5069 157.962C65.5069 156.731 64.5002 155.724 63.2697 155.724C62.0392 155.724 61.0325 156.731 61.0325 157.962C61.0325 159.192 62.0392 160.199 63.2697 160.199ZM82.7521 160.199C83.9826 160.199 84.9893 159.192 84.9893 157.962C84.9893 156.731 83.9826 155.724 82.7521 155.724C81.5217 155.724 80.5149 156.731 80.5149 157.962C80.5149 159.192 81.5217 160.199 82.7521 160.199ZM121.717 160.199C122.947 160.199 123.954 159.192 123.954 157.962C123.954 156.731 122.947 155.724 121.717 155.724C120.487 155.724 119.48 156.731 119.48 157.962C119.48 159.192 120.487 160.199 121.717 160.199ZM4.82244 202.199C6.05291 202.199 7.05966 201.192 7.05966 199.962C7.05966 198.731 6.05291 197.724 4.82244 197.724C3.59197 197.724 2.58523 198.731 2.58523 199.962C2.58523 201.192 3.59197 202.199 4.82244 202.199ZM24.3049 202.199C25.5353 202.199 26.5421 201.192 26.5421 199.962C26.5421 198.731 25.5353 197.724 24.3049 197.724C23.0744 197.724 22.0676 198.731 22.0676 199.962C22.0676 201.192 23.0744 202.199 24.3049 202.199ZM82.7521 202.199C83.9826 202.199 84.9893 201.192 84.9893 199.962C84.9893 198.731 83.9826 197.724 82.7521 197.724C81.5217 197.724 80.5149 198.731 80.5149 199.962C80.5149 201.192 81.5217 202.199 82.7521 202.199ZM102.235 202.199C103.465 202.199 104.472 201.192 104.472 199.962C104.472 198.731 103.465 197.724 102.235 197.724C101.004 197.724 99.9973 198.731 99.9973 199.962C99.9973 201.192 101.004 202.199 102.235 202.199ZM121.717 202.199C122.947 202.199 123.954 201.192 123.954 199.962C123.954 198.731 122.947 197.724 121.717 197.724C120.487 197.724 119.48 198.731 119.48 199.962C119.48 201.192 120.487 202.199 121.717 202.199ZM4.82244 244.199C6.05291 244.199 7.05966 243.192 7.05966 241.962C7.05966 240.731 6.05291 239.724 4.82244 239.724C3.59197 239.724 2.58523 240.731 2.58523 241.962C2.58523 243.192 3.59197 244.199 4.82244 244.199ZM24.3049 244.199C25.5353 244.199 26.5421 243.192 26.5421 241.962C26.5421 240.731 25.5353 239.724 24.3049 239.724C23.0744 239.724 22.0676 240.731 22.0676 241.962C22.0676 243.192 23.0744 244.199 24.3049 244.199ZM82.7521 244.199C83.9826 244.199 84.9893 243.192 84.9893 241.962C84.9893 240.731 83.9826 239.724 82.7521 239.724C81.5217 239.724 80.5149 240.731 80.5149 241.962C80.5149 243.192 81.5217 244.199 82.7521 244.199Z" fill="#BBBBBB"/>
<path d="M43.7873 34.1989C45.0178 34.1989 46.0245 33.1921 46.0245 31.9616C46.0245 30.7312 45.0178 29.7244 43.7873 29.7244C42.5568 29.7244 41.5501 30.7312 41.5501 31.9616C41.5501 33.1921 42.5568 34.1989 43.7873 34.1989ZM82.7521 76.1989C83.9826 76.1989 84.9893 75.1921 84.9893 73.9616C84.9893 72.7312 83.9826 71.7244 82.7521 71.7244C81.5217 71.7244 80.5149 72.7312 80.5149 73.9616C80.5149 75.1921 81.5217 76.1989 82.7521 76.1989ZM24.3049 118.199C25.5353 118.199 26.5421 117.192 26.5421 115.962C26.5421 114.731 25.5353 113.724 24.3049 113.724C23.0744 113.724 22.0676 114.731 22.0676 115.962C22.0676 117.192 23.0744 118.199 24.3049 118.199ZM43.7873 202.199C45.0178 202.199 46.0245 201.192 46.0245 199.962C46.0245 198.731 45.0178 197.724 43.7873 197.724C42.5568 197.724 41.5501 198.731 41.5501 199.962C41.5501 201.192 42.5568 202.199 43.7873 202.199ZM63.2697 244.199C64.5002 244.199 65.5069 243.192 65.5069 241.962C65.5069 240.731 64.5002 239.724 63.2697 239.724C62.0392 239.724 61.0325 240.731 61.0325 241.962C61.0325 243.192 62.0392 244.199 63.2697 244.199ZM121.717 244.199C122.947 244.199 123.954 243.192 123.954 241.962C123.954 240.731 122.947 239.724 121.717 239.724C120.487 239.724 119.48 240.731 119.48 241.962C119.48 243.192 120.487 244.199 121.717 244.199Z" fill="#BDBDBD"/>
</svg>
