<svg width="46" height="40" viewBox="0 0 46 40" fill="none" xmlns="http://www.w3.org/2000/svg">
<path d="M37.8212 12.9515C37.344 12.7911 36.8496 12.6394 36.3404 12.4959C36.4241 12.1625 36.5009 11.8333 36.5692 11.5098C37.6901 6.19735 36.9572 1.91759 34.4546 0.508507C32.0549 -0.842613 28.1303 0.566147 24.1667 3.934C23.7856 4.25785 23.4033 4.60072 23.0213 4.96007C22.7667 4.72232 22.5126 4.49256 22.2591 4.2728C18.1051 0.671672 13.9414 -0.845891 11.4412 0.567266C9.04374 1.9223 8.33377 5.94569 9.34276 10.9804C9.4402 11.4666 9.5541 11.9633 9.68289 12.4682C9.09361 12.6315 8.52471 12.8056 7.98037 12.9908C3.11027 14.6486 0 17.2468 0 19.9418C0 22.7251 3.33888 25.5169 8.41147 27.2097C8.81178 27.3433 9.22715 27.4696 9.65522 27.5895C9.51627 28.1356 9.39541 28.6708 9.29396 29.1927C8.33188 34.14 9.08321 38.0683 11.4742 39.4148C13.944 40.8053 18.0889 39.376 22.125 35.9314C22.444 35.6592 22.7641 35.3704 23.0848 35.0677C23.5005 35.4586 23.9156 35.8285 24.3284 36.1754C28.2378 39.4601 32.099 40.7864 34.4878 39.4362C36.9551 38.0416 37.757 33.8217 36.7159 28.6874C36.6364 28.2953 36.5439 27.8947 36.44 27.487C36.7311 27.4029 37.0168 27.3162 37.2955 27.226C42.5689 25.5201 46 22.7623 46 19.9418C46 17.237 42.7894 14.6214 37.8212 12.9515ZM36.6775 25.4048C36.4259 25.4861 36.1678 25.5647 35.9048 25.6409C35.3227 23.8415 34.537 21.928 33.5755 19.9511C34.493 18.0213 35.2483 16.1323 35.8142 14.3445C36.2848 14.4775 36.7415 14.6177 37.1816 14.7657C41.4383 16.1964 44.0349 18.3118 44.0349 19.9418C44.0349 21.678 41.2307 23.9318 36.6775 25.4048ZM34.7882 29.06C35.2485 31.3303 35.3142 33.3829 35.0093 34.9876C34.7354 36.4294 34.1844 37.3907 33.5032 37.7757C32.0535 38.595 28.9534 37.5301 25.61 34.721C25.2267 34.399 24.8406 34.0552 24.4534 33.6913C25.7495 32.3072 27.0449 30.6982 28.3092 28.9112C30.533 28.7186 32.6339 28.4036 34.5392 27.9736C34.633 28.3431 34.7164 28.7056 34.7882 29.06ZM15.6824 37.6342C14.2661 38.1225 13.138 38.1365 12.4561 37.7526C11.0052 36.9355 10.402 33.7814 11.2248 29.5505C11.319 29.066 11.4312 28.5683 11.5605 28.0595C13.4448 28.4663 15.5304 28.7591 17.7595 28.9355C19.0323 30.6841 20.3651 32.2914 21.7083 33.6987C21.4148 33.9753 21.1225 34.2386 20.8318 34.4868C19.0471 36.0099 17.2586 37.0906 15.6824 37.6342ZM9.04702 25.3942C6.80401 24.6457 4.95166 23.6729 3.68195 22.6113C2.54104 21.6573 1.96502 20.7102 1.96502 19.9418C1.96502 18.3064 4.46226 16.2204 8.62722 14.8026C9.13258 14.6306 9.6616 14.4684 10.2106 14.3161C10.7862 16.1443 11.5413 18.0557 12.4525 19.9884C11.5295 21.9499 10.7637 23.8918 10.1824 25.7413C9.79105 25.6315 9.41187 25.5159 9.04702 25.3942ZM11.2713 10.6119C10.4068 6.29832 10.9809 3.04431 12.4257 2.22777C13.9646 1.3579 17.3676 2.59814 20.9542 5.70754C21.1835 5.90628 21.4137 6.11429 21.6445 6.3295C20.308 7.73066 18.9873 9.32585 17.7258 11.0641C15.5624 11.2599 13.4915 11.5744 11.5875 11.9956C11.4678 11.5254 11.3617 11.0635 11.2713 10.6119ZM31.1136 15.3956C30.6584 14.628 30.1911 13.8785 29.7148 13.1495C31.1825 13.3307 32.5886 13.5712 33.9092 13.8654C33.5127 15.106 33.0186 16.4031 32.4369 17.7328C32.0197 16.9593 31.5783 16.1795 31.1136 15.3956ZM23.0219 7.70068C23.9283 8.65944 24.8361 9.72988 25.7289 10.8913C24.8292 10.8498 23.9184 10.8282 23 10.8282C22.0903 10.8282 21.1862 10.8493 20.2921 10.8901C21.1858 9.73948 22.1014 8.67047 23.0219 7.70068ZM14.8785 15.4089C14.4238 16.1787 13.9906 16.9543 13.5799 17.7313C13.0077 16.4063 12.5181 15.1033 12.1182 13.8451C13.4307 13.5584 14.8302 13.3239 16.2886 13.1462C15.8055 13.8819 15.3344 14.6369 14.8785 15.4087V15.4089ZM16.3306 26.8742C14.8239 26.7101 13.4032 26.4877 12.0911 26.2088C12.4974 24.9282 12.9978 23.5974 13.5822 22.2438C13.9939 23.0203 14.4288 23.7962 14.8862 24.5677H14.8863C15.3523 25.3536 15.8351 26.1234 16.3306 26.8742ZM23.0763 32.3181C22.1449 31.3369 21.2159 30.2516 20.3086 29.0842C21.1894 29.118 22.0874 29.1352 23 29.1352C23.9376 29.1352 24.8645 29.1146 25.7768 29.075C24.881 30.2634 23.9766 31.3504 23.0763 32.3181ZM32.4557 22.1748C33.0705 23.543 33.5888 24.8669 34.0003 26.1257C32.6666 26.4228 31.2266 26.662 29.7094 26.8398C30.1869 26.101 30.6583 25.3386 31.1215 24.5545C31.59 23.7611 32.035 22.9666 32.4557 22.1748ZM29.4193 23.596C28.7002 24.8133 27.962 25.9753 27.2125 27.0722C25.8475 27.1675 24.4373 27.2166 23 27.2166C21.5685 27.2166 20.1761 27.1732 18.8352 27.0882C18.0555 25.9769 17.3013 24.8114 16.5868 23.6064H16.587C15.8744 22.4047 15.2185 21.1929 14.6242 19.9878C15.2183 18.7799 15.8725 17.5667 16.581 16.3672L16.5808 16.3674C17.2912 15.1647 18.0388 14.0048 18.8113 12.9005C20.1793 12.7995 21.5822 12.7469 22.9999 12.7469H23C24.4241 12.7469 25.8288 12.7999 27.1964 12.9018C27.9571 13.9981 28.6996 15.1541 29.4128 16.357C30.1341 17.5734 30.7966 18.7786 31.3958 19.9605C30.7984 21.1628 30.1373 22.3801 29.4193 23.596ZM33.473 2.17069C35.0134 3.03799 35.6125 6.53583 34.6446 11.1226C34.5829 11.4152 34.5134 11.7134 34.4379 12.0155C32.5294 11.5855 30.4571 11.2656 28.2874 11.0669C27.0234 9.30946 25.7136 7.71179 24.3988 6.32862C24.7523 5.99661 25.1053 5.68004 25.4568 5.38129C28.8528 2.49574 32.0269 1.35647 33.473 2.17069ZM23 15.9312C25.2686 15.9312 27.1076 17.7268 27.1076 19.9418C27.1076 22.1567 25.2686 23.9523 23 23.9523C20.7314 23.9523 18.8924 22.1567 18.8924 19.9418C18.8924 17.7268 20.7314 15.9312 23 15.9312Z" fill="#00D8FF"/>
</svg>
