<svg width="40" height="41" viewBox="0 0 40 41" fill="none" xmlns="http://www.w3.org/2000/svg">
<path d="M0 20.5V41H20H40V20.5V0H20H0V20.5Z" fill="#007ACC"/>
<path d="M8.84544 20.636L8.83274 22.315H11.4359H14.0391V29.8968L14.0391 37.4785H15.8804H17.7216V29.8968V22.315H20.3248H22.928V20.6685C22.928 19.7574 22.9089 18.996 22.8835 18.9765C22.8645 18.9504 19.6962 18.9374 15.855 18.9439L8.86449 18.9634L8.84544 20.636Z" fill="white"/>
<path d="M32.276 18.9158C33.2919 19.1762 34.0665 19.6382 34.7776 20.3932C35.1458 20.7966 35.6919 21.532 35.7363 21.7078C35.749 21.7598 34.0093 22.9573 32.9553 23.6276C32.9172 23.6536 32.7649 23.4844 32.5934 23.2241C32.0792 22.4562 31.5395 22.1243 30.7141 22.0657C29.5014 21.9811 28.7204 22.6319 28.7268 23.7187C28.7268 24.0376 28.7712 24.2263 28.8982 24.4866C29.1649 25.0528 29.6601 25.3912 31.2157 26.0811C34.0792 27.3436 35.3046 28.1766 36.0665 29.3611C36.9172 30.6822 37.1077 32.7908 36.5299 34.3592C35.895 36.0643 34.3204 37.2227 32.1045 37.6066C31.4188 37.7303 29.7934 37.7108 29.0569 37.5741C27.4506 37.2812 25.9268 36.4678 24.9871 35.4005C24.6188 34.9839 23.9014 33.8971 23.9458 33.819C23.9649 33.793 24.1299 33.6889 24.3141 33.5782C24.4919 33.4741 25.1649 33.0771 25.7998 32.6997L26.949 32.0163L27.1903 32.3808C27.5268 32.9079 28.2633 33.6303 28.7077 33.8711C29.9839 34.5609 31.7363 34.4633 32.5998 33.6693C32.968 33.3244 33.1204 32.9665 33.1204 32.4393C33.1204 31.9643 33.0633 31.756 32.822 31.3981C32.5109 30.9425 31.876 30.5585 30.0728 29.7581C28.0093 28.847 27.1204 28.2808 26.3077 27.3827C25.8379 26.862 25.3934 26.029 25.2093 25.3327C25.0569 24.7535 25.0188 23.3022 25.1395 22.7165C25.5649 20.673 27.0696 19.2478 29.2411 18.8247C29.9458 18.6881 31.5839 18.7401 32.276 18.9158Z" fill="white"/>
</svg>
